<?xml version="1.0" standalone="no"?>
<!DOCTYPE svg PUBLIC "-//W3C//DTD SVG 1.1//EN" "http://www.w3.org/Graphics/SVG/1.1/DTD/svg11.dtd">
<svg xmlns="http://www.w3.org/2000/svg">
<metadata>Copyright (C) 2017 by original authors @ fontello.com</metadata>
<defs>
<font id="bioprint" horiz-adv-x="1000" >
<font-face font-family="bioprint" font-weight="400" font-stretch="normal" units-per-em="1000" ascent="850" descent="-150" />
<missing-glyph horiz-adv-x="1000" />
<glyph glyph-name="009-dumbbell-11" unicode="&#xe808;" d="M933 500c-12 0-23-3-33-9-4 33-32 59-67 59-36 0-66-30-66-67v-33h-534v33c0 37-30 67-66 67-34 0-63-26-67-59-9 6-21 9-33 9-37 0-67-30-67-67v-166c0-37 30-67 67-67 12 0 24 3 33 9 4-33 33-59 67-59 36 0 66 30 66 67v33h534v-33c0-37 30-67 66-67 35 0 63 26 67 59 10-6 21-9 33-9 37 0 67 30 67 67v166c0 37-30 67-67 67z m-866-267c-19 0-34 15-34 34v166c0 19 15 34 34 34s33-15 33-34v-166c0-19-15-34-33-34z m133-16c0-19-15-34-33-34s-34 15-34 34v50 166 50c0 19 15 34 34 34s33-15 33-34v-33-200-33z m383 66c0 10-6 17-16 17-10 0-17-7-17-17h-33c0 10-7 17-17 17s-17-7-17-17h-33c0 10-7 17-17 17-10 0-16-7-16-17h-184v134h184c0-10 6-17 16-17 10 0 17 7 17 17h33c0-10 7-17 17-17s17 7 17 17h33c0-10 7-17 17-17 8 0 16 7 16 17h184v-134h-184z m284-66c0-19-15-34-34-34s-33 15-33 34v33 200 33c0 19 15 34 33 34s34-15 34-34v-50-166-50z m100 50c0-19-15-34-34-34s-33 15-33 34v166c0 19 15 34 33 34s34-15 34-34v-166z m-500 100c10 0 16 6 16 16s-6 17-16 17-17-7-17-17 7-16 17-16z m66 0c10 0 17 6 17 16s-7 17-17 17c-10 0-16-7-16-17s6-16 16-16z m-100 0c-10 0-16-7-16-17s6-17 16-17c10 0 17 7 17 17s-7 17-17 17z m67 0c-10 0-17-7-17-17s7-17 17-17 17 7 17 17-7 17-17 17z m67 0c-10 0-17-7-17-17s7-17 17-17c8 0 16 7 16 17s-6 17-16 17z m-100-34c-10 0-17-6-17-16s7-17 17-17 16 7 16 17-6 16-16 16z m66 0c-10 0-16-6-16-16s6-17 16-17 17 7 17 17-7 16-17 16z" horiz-adv-x="1000" />

<glyph glyph-name="010-weight-5" unicode="&#xe809;" d="M944-67c0 3-1 6-2 8 0 0 0 0 0 1l-5 56c0 1 0 1 0 2 0 2 0 4-1 5l-5 57c1 1 1 3 1 5 0 3-1 6-2 8l-35 390c0 0 0 1 0 2 0 2 0 3-1 5l-5 56c1 2 1 4 1 5 0 4-1 7-2 9-5 43-41 75-83 75h-88v145c0 48-37 88-83 88h-267c-47 0-83-40-83-88v-145h-89c-43 0-80-34-85-79l-47-533c-1-1-1-3-1-5 0-1 0-1 0-2l-5-56c-2-24 5-49 22-65 15-17 36-27 60-27h723c22 0 45 10 58 27 13 14 20 31 22 49 1 2 2 4 2 7z m-327 684h-233v110c0 11 8 23 16 23h200c5 0 9-5 10-7 5-5 7-10 7-16v-110z m-300 145c0 30 22 55 50 55h267c26 0 50-25 50-55v-145h-34v110c0 13-5 26-13 38-10 12-23 18-37 18h-200c-30 0-50-30-50-56v-110h-33v145z m545-880h-723c-14 0-25 6-35 16-5 6-9 12-11 19h191c8 0 16 6 16 16s-6 17-16 17h-193l3 33h156c9 0 17 7 17 17s-7 17-17 17h-153l3 33h117c8 0 17 7 17 17 0 10-7 16-17 16h-113l27 300h86c8 0 17 7 17 17s-7 17-17 17h-83l3 33h113c9 0 17 7 17 17s-7 16-17 16h-110l3 34h141c8 0 16 6 16 16s-6 17-16 17h-136c7 20 26 33 47 33v0h612c20 0 39-14 46-33h-136c-10 0-17-7-17-17s7-16 17-16h141l3-34h-111c-10 0-16-6-16-16s6-17 16-17h114l3-33h-83c-10 0-17-7-17-17s7-17 17-17h86l27-300h-113c-10 0-17-6-17-16 0-10 7-17 17-17h116l3-33h-153c-10 0-16-7-16-17s6-17 16-17h156l3-33h-192c-10 0-17-7-17-17s7-16 17-16h191c-2-7-6-14-11-19-8-11-22-16-35-16z" horiz-adv-x="1000" />

<glyph glyph-name="011-weight-4" unicode="&#xe80a;" d="M942 450h-884c-31 0-58-27-58-58v-84c0-31 27-58 58-58h884c31 0 58 27 58 58v84c0 31-27 58-58 58z m25-142c0-13-12-25-25-25h-159c0 10-6 17-16 17-10 0-17-7-17-17h-33c0 10-7 17-17 17s-17-7-17-17h-33c0 10-7 17-17 17-10 0-16-7-16-17h-234c0 10-6 17-16 17s-17-7-17-17h-33c0 10-7 17-17 17s-17-7-17-17h-33c0 10-7 17-17 17s-16-7-16-17h-159c-13 0-25 12-25 25v84c0 13 12 25 25 25h159c0-10 6-17 16-17s17 7 17 17h33c0-10 7-17 17-17s17 7 17 17h33c0-10 7-17 17-17s16 7 16 17h234c0-10 6-17 16-17 9 0 17 7 17 17h33c0-10 7-17 17-17 8 0 17 7 17 17h33c0-10 7-17 17-17 8 0 16 7 16 17h159c13 0 25-12 25-25v-84z m-700 59c10 0 16 6 16 16s-6 17-16 17-17-7-17-17 7-16 17-16z m66 0c10 0 17 6 17 16s-7 17-17 17c-10 0-16-7-16-17s6-16 16-16z m-100 0c-10 0-16-7-16-17s6-17 16-17 17 7 17 17-7 17-17 17z m67 0c-10 0-17-7-17-17s7-17 17-17 17 7 17 17-7 17-17 17z m67 0c-10 0-17-7-17-17s7-17 17-17 16 7 16 17-6 17-16 17z m-100-34c-10 0-17-6-17-16s7-17 17-17 16 7 16 17-6 16-16 16z m66 0c-10 0-16-6-16-16s6-17 16-17c10 0 17 7 17 17s-7 16-17 16z m334 34c8 0 16 6 16 16s-6 17-16 17c-10 0-17-7-17-17s7-16 17-16z m66 0c9 0 17 6 17 16s-7 17-17 17c-10 0-16-7-16-17s6-16 16-16z m-100 0c-10 0-16-7-16-17s6-17 16-17c9 0 17 7 17 17s-7 17-17 17z m67 0c-10 0-17-7-17-17s7-17 17-17c8 0 17 7 17 17s-7 17-17 17z m67 0c-10 0-17-7-17-17s7-17 17-17c8 0 16 7 16 17s-6 17-16 17z m-100-34c-10 0-17-6-17-16s7-17 17-17c8 0 16 7 16 17s-6 16-16 16z m66 0c-10 0-16-6-16-16s6-17 16-17c9 0 17 7 17 17s-7 16-17 16z" horiz-adv-x="1000" />

<glyph glyph-name="012-beverage" unicode="&#xe80b;" d="M783 600c0 27-16 51-40 61-29 110-130 189-243 189-115 0-214-79-243-189-23-10-40-34-40-61 0-25 14-48 35-59l7-152c0-2-1-3-1-6l17-350c0-2 1-4 1-6l4-80c2-55 47-97 100-97h240c53 0 98 42 100 97l28 594c21 11 35 34 35 59z m-283 217c93 0 177-62 205-150h-412c29 88 112 150 207 150z m207-417h-414l-6 133h426l-6-133z m-16-350h-382l-15 317h412l-15-317z m-4-102c-2-36-30-65-67-65h-240c-35 0-65 29-67 65l-3 69h380l-3-69z m41 621c-1 0-1-1-1-1-1 0-1 0-1 0-3-1-6-1-9-1h-434c-3 0-6 0-9 1 0 0 0 0-1 0 0 0 0 1-1 1-13 4-22 17-22 31 0 15 10 27 23 32 1 0 2 0 2 0 2 1 4 1 5 1 1 0 2 0 3 0h434c1 0 2 0 3 0 1 0 3 0 5-1 1 0 1 0 2 0 13-5 23-17 23-32 0-14-9-27-22-31z m-310-361c2-6 9-10 15-10h97l-77-88c-6-7-5-17 2-23 3-2 8-4 12-4 5 0 10 2 13 5l100 117c3 5 5 12 2 18-4 7-9 10-15 10h-94l72 70c7 7 7 17 0 24s-17 6-23 0l-100-100c-5-5-5-12-4-19z" horiz-adv-x="1000" />

<glyph glyph-name="013-strenght" unicode="&#xe80c;" d="M983 588l-11 10c4 8 6 16 6 24 0 14-6 27-17 37l-151 152c-16 16-41 19-61 10l-12 11c-15 15-34 20-52 17-18-4-34-17-41-34l-38-93c-3-7-4-14-5-21-2-3-4-7-4-11v-43c0-15-10-31-25-31h-37c-34 0-61-25-61-58v-38c0-14-12-29-27-29h-37c-36 0-61-25-61-58v-38c0-14-14-27-28-27h-38c-34 0-59-27-59-60v-38c0-14-12-27-28-27h-9c-17 11-38 12-57 4l-97-41c-16-7-28-23-32-41-4-18 4-38 16-50l12-13c-3-7-5-15-5-23 0-14 6-27 16-37l152-152c9-11 23-16 37-16 9 0 17 1 24 5l12-13c11-10 25-16 39-16 4 0 8 0 11 0 18 4 34 15 41 33l41 96c8 18 7 37-1 54 24 9 43 33 44 60v38c0 14 9 25 23 25h38c36 0 64 28 64 62v38c0 14 11 23 25 23h38c34 0 62 29 62 64v38c0 16 13 23 25 23h38c28 0 54 24 59 54 11-6 23-9 35-9 9 0 18 1 27 7l91 39c18 7 30 23 34 41 4 20-2 38-16 52z m-198 198l151-152c4-3 6-7 6-12 0-6-2-9-6-13-7-7-17-7-25 0l-151 152c-4 4-6 7-6 13 0 0 0 1 0 1 1 2 1 4 2 5 1 2 2 4 4 6 3 4 7 5 12 5 6 0 9-1 13-5z m-525-516v38c0 14 9 25 23 25h38c35 0 64 28 64 62v38c0 14 11 23 25 23h37c34 0 63 28 63 64v38c0 16 12 23 25 23h37c29 0 55 24 60 54l56-56-1-21c0-15-11-31-25-31h-38c-34 0-61-25-61-59v-37c0-15-12-29-26-29h-38c-36 0-61-25-61-59v-37c0-15-14-27-28-27h-38c-34 0-59-27-59-61v-37c0-14-12-27-28-27h-6l-58 59c22 10 39 32 39 57z m-43-355l-152 152c-3 3-5 7-5 12 0 5 2 9 5 13 4 3 8 5 13 5 0 0 0 0 0 0s0 0 0 0c4 0 9-2 12-5l152-152c4-4 5-7 5-13 0 0 0-1 0-2 0-4-2-7-5-10-4-4-7-6-13-6s-8 2-12 6z m146 80l-41-96c-1-8-7-11-14-13-7-2-12 0-18 5l-12 13c3 7 5 15 5 23 0 12-3 22-11 31-1 3-3 5-5 7l-152 152c0 0 0 0 0 0-1 0-1 1-2 2-1 0-1 1-2 1 0 0 0 0 0 0-16 13-39 15-58 7l-13 13c-5 5-7 10-5 18 2 5 5 10 12 14l97 41c11 5 23 4 32-5l172-171c1-2 3-4 6-6l4-4c7-9 11-21 5-32z m388 443h-38c-34 0-60-25-60-59v-38c0-14-13-28-27-28h-38c-35 0-60-25-60-59v-37c0-15-15-27-29-27h-37c-34 0-59-27-59-61v-37c0-15-13-27-29-27h-5l-59 59c22 9 40 32 41 59v37c0 14 9 25 23 25h38c35 0 64 29 64 63v37c0 14 11 23 25 23h37c34 0 63 29 63 65v37c0 16 12 23 25 23h37c28 0 54 23 60 52l54-55-1-22c0-14-11-30-25-30z m212 107c-2-7-5-12-12-16l-91-39c-13-6-27-2-36 7l-179 178c-8 9-12 24-7 36l40 91c3 7 9 11 16 13 0 0 1 0 3 0 6 0 11-4 16-6l11-10c-4-8-5-15-5-24 0 0 0 0 0-1 0 0 0 0 0 0 0-15 5-27 16-38l151-152c9-10 24-16 38-16 9 0 17 2 24 6l10-9c5-6 7-13 5-20z" horiz-adv-x="1000" />

<glyph glyph-name="014-dumbbell-10" unicode="&#xe80d;" d="M256 437c1 2 1 5 2 8 70-7 140-12 210-12 69 0 139 5 208 11 1-3 1-5 1-7 5-22 25-37 47-37h152c21 0 41 15 46 37 15 76 15 155 0 226-5 22-25 37-46 37h-152c-22 0-40-15-47-37 0-3-1-5-1-8-138 16-279 16-418 0-1 3-1 5-2 8-5 22-25 37-47 37h-151c-22 0-40-15-47-37-15-71-15-150 0-226 5-22 25-37 47-37h151c22 0 42 15 47 37z m468 229h152c6 0 13-5 13-10 13-66 13-139 0-211 0-7-7-12-13-12h-152c-7 0-12 5-13 10-2 7-3 13-4 20 0 1 0 1 0 2-8 57-8 113 0 168 0 1 0 2 0 3 1 6 2 13 4 19 0 6 6 11 13 11z m-306-34c0-9 7-16 16-16 10 0 17 7 17 17 11 0 22 0 33 0 0-10 7-17 17-17 9 0 16 7 16 16 52-1 103-5 153-10 0-6-1-11-1-17-5-41-4-84 2-127-40-4-80-7-120-9-1 9-8 14-17 14-9 0-16-6-16-15-12-1-23-1-34-1 0 10-7 16-16 16-10 0-17-6-17-16-11 0-22 0-33 1-1 9-7 15-17 15-9 0-16-5-17-14-40 2-81 5-121 9 6 43 6 86 2 127-1 6-1 11-2 17 51 5 103 9 155 10z m-373-189c-14 70-14 145 0 212 1 6 6 11 13 11h151c7 0 14-5 14-10 13-66 13-139 0-211 0-7-7-12-14-12h-151c-7 0-12 5-13 10z m944-180c-5 22-25 37-47 37h-151c-22 0-42-15-47-37-1-2-1-5-2-8-138 16-278 16-418 0 0 3-1 6-1 8-5 22-25 37-47 37h-151c-22 0-40-15-47-37-15-71-15-149 0-226 5-22 25-37 47-37h151c22 0 42 15 47 37 0 3 1 6 1 8 70-7 140-11 210-11 70 0 139 4 209 10 0-2 1-5 1-7 5-22 25-37 47-37h151c22 0 42 15 47 37 15 77 15 155 0 226z m-713-229h-151c-7 0-12 5-14 10-13 70-13 145 0 211 0 7 7 12 14 12v0h151c7 0 12-4 13-10 14-67 14-140 0-212 0-6-6-11-13-11z m341 35c-1 9-7 15-16 15-10 0-16-7-17-16-11 0-22 0-33-1 0 10-7 17-17 17-10 0-16-7-16-17-12 1-23 1-34 1 0 9-7 16-16 16-10 0-16-6-17-15-41 2-81 5-122 10 6 42 7 85 2 126 0 6-1 11-1 17 51 6 102 9 154 10 1-9 7-15 17-15 10 0 16 6 17 16 11 0 22 0 33 0 0-10 7-16 16-16 9 0 16 6 17 15 51-1 102-5 153-10-1-6-1-11-2-17-4-41-4-84 2-126-39-5-80-8-120-10z m339-24c0-6-7-11-14-11h-151c-7 0-12 5-14 10-1 6-2 13-3 19 0 1 0 2 0 2-8 57-8 114 0 168 0 1 0 2 0 3 1 7 2 13 3 19 0 7 7 12 14 12v0h151c7 0 12-4 14-10 13-67 13-140 0-212z m-522 505c10 0 17 7 17 17s-7 16-17 16-16-6-16-16 6-17 16-17z m67 0c10 0 17 7 17 17s-7 16-17 16c-10 0-17-6-17-16s7-17 17-17z m-100-33c10 0 17 6 17 16 0 10-7 17-17 17-10 0-17-7-17-17 0-10 7-16 17-16z m67 33c-10 0-17-7-17-17 0-10 7-16 17-16s16 6 16 16c0 10-6 17-16 17z m66 0c-10 0-16-7-16-17 0-10 6-16 16-16 10 0 17 6 17 16 0 10-7 17-17 17z m-100-33c-10 0-16-7-16-17s6-17 16-17 17 7 17 17-7 17-17 17z m67 0c-10 0-17-7-17-17s7-17 17-17c10 0 17 7 17 17s-7 17-17 17z m-100 66c10 0 17 7 17 17s-7 16-17 16c-10 0-17-6-17-16s7-17 17-17z m67 0c10 0 16 7 16 17s-6 16-16 16-17-6-17-16 7-17 17-17z m66 0c10 0 17 7 17 17s-7 16-17 16c-10 0-16-6-16-16s6-17 16-17z m-33-433c10 0 17 7 17 17 0 10-7 17-17 17-10 0-17-7-17-17 0-10 7-17 17-17z m66 0c9 0 17 7 17 17 0 10-7 17-17 17s-16-7-16-17c0-10 7-17 16-17z m-99 0c-10 0-17-6-17-16s7-17 17-17 16 7 16 17-6 16-16 16z m66 0c-10 0-16-6-16-16s6-17 16-17c10 0 17 7 17 17s-7 16-17 16z m67 0c-10 0-17-6-17-16s7-17 17-17c8 0 16 7 16 17s-6 16-16 16z m-100-33c-10 0-17-7-17-17s7-16 17-16c10 0 17 6 17 16s-7 17-17 17z m66 0c-9 0-16-7-16-17s7-16 16-16c9 0 17 6 17 16s-7 17-17 17z m-99 67c10 0 16 6 16 16s-6 17-16 17-17-7-17-17 7-16 17-16z m66 0c10 0 17 6 17 16s-7 17-17 17c-10 0-16-7-16-17s6-16 16-16z m67 33c-10 0-17-7-17-17s7-16 17-16c8 0 16 6 16 16s-6 17-16 17z" horiz-adv-x="1000" />

<glyph glyph-name="015-timer" unicode="&#xe80e;" d="M833 533c-8 16-17 30-27 44l32 31c6 6 7 15 2 22l18 18c17 17 17 42 0 59l-37 36c-16 17-41 17-58 0l-18-18-2 2c-3 3-7 5-12 5s-8-2-11-5l-39-39c-30 16-63 28-96 36v43c0 10-7 16-17 16v25c0 24-18 42-40 42h-52c-23 0-41-18-41-42v-25c-10 0-17-6-17-16v-43c-34-7-66-19-97-36l-40 40c-3 4-6 5-11 5-5 0-9-1-12-5l-17 17c-16 17-41 17-58 0l-37-37c-16-16-16-41 0-58l17-17c-3-3-5-6-5-11 0-5 2-9 5-12l32-32c-11-14-20-29-29-45-80-150-60-340 54-466l125-145c40-45 96-72 156-72 60 0 117 25 154 70l125 145c113 128 135 317 53 468z m-50 190c3 4 8 4 12 0l36-36c4-4 4-9 0-12l-18-18-47 46 17 20z m-52-33l70-70-16-16c-3 3-7 7-10 11-19 21-41 39-65 55l21 20z m-263 118c0 5 3 9 7 9h51c5 0 9-4 9-9v-25h-67v25z m-17-58h100v-20c-29 5-59 5-89 1-4 0-7 0-11-1v20z m-281-65l36 37c2 1 4 1 5 1s4 0 5-1l18-18-48-47-16 16c-4 4-4 9 0 12z m30-65l1 2c0 0 0 0 0 0l70 69 20-21c-28-18-53-40-75-66l-16 16z m558-533l-125-145c-33-39-82-60-132-60-51 0-98 21-131 60l-125 145c-104 120-124 293-49 431 49 91 136 155 236 175 2 0 4 0 6 0 42 9 83 9 127 0 1 0 1 0 3 0 0 0 0 0 0 0 47-9 91-28 129-54 1 0 1-1 1-1 2-1 4-3 6-4 25-18 48-40 67-64 1 0 1 0 1-1 13-16 24-33 34-51 75-140 55-313-48-431z m-143 481h-225c-59 0-105-46-105-105v-91c0-59 46-105 105-105h223c58 0 105 46 107 105v91c0 59-47 105-105 105z m71-198c0-40-31-72-71-72h-225c-40 0-72 32-72 72v92c0 40 32 71 72 71h225c40 0 71-31 71-71v-92z m-185-270c-46 0-83-37-83-83s37-84 83-84c45 0 84 37 84 84s-37 83-84 83z m0-133c-28 0-50 21-50 50s22 50 50 50c27 0 50-22 50-50s-21-50-50-50z m-121 455l50 50c6 6 6 16 0 23s-17 7-24 0l-50-50c-6-7-6-17 0-23 4-4 7-5 12-5 3 0 8 1 12 5z m243-10l-50-50c-7-7-7-17 0-24 3-3 7-5 12-5 3 0 8 2 11 5l50 50c7 7 7 17 0 24s-16 6-23 0z m-93 83c-7 7-17 7-24 0l-133-133c-7-7-7-17 0-24 3-3 7-5 12-5 3 0 8 2 11 5l134 134c6 6 6 16 0 23z m100 0c-7 7-17 7-24 0l-133-133c-7-7-7-17 0-24 3-3 7-5 12-5 3 0 8 2 11 5l134 134c6 6 6 16 0 23z" horiz-adv-x="1000" />

<glyph glyph-name="016-dumbbell-9" unicode="&#xe80f;" d="M971 421l-398 398c-20 20-45 31-73 31-29 0-54-11-74-31l-396-394c-19-20-30-46-30-75 0-28 11-55 32-75l394-394c22-20 47-31 74-31 26 0 51 9 71 29l400 398c39 39 39 105 0 144z m-27-119l-398-398c-27-27-68-27-95 0l-396 396c-12 14-19 32-19 50 0 18 7 36 21 50l394 394c13 13 31 20 49 20 17 0 35-7 48-20l396-398c27-26 27-67 0-94z m-186 155c-10 0-21-3-30-8-8 25-32 44-59 44-34 0-62-29-62-63v-26h-214v26c0 34-29 63-63 63-27 0-51-19-59-44-9 5-19 8-30 8-34 0-63-28-63-62v-90c0-33 29-62 63-62 11 0 21 3 30 8 8-25 32-44 59-44 34 0 63 29 63 63v27h214v-27c0-34 28-63 62-63 27 0 51 19 59 44 9-5 20-8 30-8 34 0 63 29 63 62v90c0 34-29 62-63 62z m-517-178c-14 0-27 12-27 26v90c0 14 13 26 27 26s27-12 27-26v-90c0-14-13-26-27-26z m116-9c0-15-13-27-27-27-14 0-27 12-27 27v35 90 35c0 15 13 27 27 27 14 0 27-12 27-27v-44-72-44z m36 62v36h214v-36h-214z m303-62c0-15-13-27-27-27-14 0-27 12-27 27v44 72 44c0 15 13 27 27 27 14 0 27-12 27-27v-35-90-35z m89 35c0-14-12-26-27-26s-26 12-26 26v90c0 14 12 26 26 26s27-12 27-26v-90z" horiz-adv-x="1000" />

<glyph glyph-name="017-weight-3" unicode="&#xe810;" d="M500 850c-277 0-500-225-500-500s223-500 500-500c275 0 500 225 500 500s-223 500-500 500z m0-967c-257 0-467 210-467 467s210 467 467 467 467-210 467-467-210-467-467-467z m0 900c-238 0-433-195-433-433s195-433 433-433 433 195 433 433-195 433-433 433z m0-833c-220 0-400 180-400 400s180 400 400 400 400-180 400-400-180-400-400-400z m0 483c-47 0-83-36-83-83 0-47 36-83 83-83 45 0 83 36 83 83 0 47-36 83-83 83z m0-133c-28 0-50 22-50 50 0 28 22 50 50 50 27 0 50-22 50-50 0-28-22-50-50-50z m245 295c-7 7-17 7-23 0l-128-128c-26 21-58 33-94 33s-68-12-94-33l-128 128c-6 7-16 7-23 0s-7-17 0-23l128-128c-21-26-33-58-33-94 0-36 12-68 33-94l-128-128c-7-6-7-16 0-23 3-3 7-5 12-5 3 0 8 2 11 5l128 128c26-21 58-33 94-33s68 12 94 33l128-128c3-3 6-5 11-5 4 0 9 2 12 5 7 7 7 17 0 23l-128 128c21 26 33 58 33 94 0 36-12 68-33 94l128 128c7 6 7 16 0 23z m-245-362c-65 0-117 52-117 117 0 65 52 117 117 117 63 0 117-52 117-117s-52-117-117-117z" horiz-adv-x="1000" />

<glyph glyph-name="018-dumbbell-8" unicode="&#xe811;" d="M630 837c-3 3-7 6-12 6-41 5-78 7-118 7s-82-2-118-7c-5 0-9-3-12-6s-3-9-3-14l33-163c2-8 10-13 18-13 25 1 55 3 82 3s53-2 83-5c9 0 15 7 17 15l33 163c0 5 0 10-3 14z m-60-157c-25 2-47 3-70 3s-47-1-70-3l-27 132c32 3 65 5 97 5s63-2 97-5l-27-132z m-53-130c-100 5-197-30-269-98-75-70-115-165-115-269 0-128 69-248 180-315 20-11 44-18 69-18h236c25 0 49 7 69 18 113 67 181 190 180 320-4 189-160 350-350 362z m153-653c-15-9-33-14-52-14h-236c-19 0-37 5-52 14-100 60-163 170-163 286 0 94 36 180 103 244 62 58 142 90 227 90 6 0 13 0 18 0 173-10 317-157 318-329 2-120-61-231-163-291z m-42 438c-45 38-105 55-163 45-63-10-117-50-145-107-38-76-25-166 35-228 17-18 42-28 67-28h155c25 0 48 10 65 25 36 38 56 88 56 140 0 60-25 115-70 153z m-10-268c-10-10-25-17-41-17h-155c-15 0-30 7-42 18-50 50-62 125-28 189 23 48 68 81 120 90 50 8 100-5 136-37 37-32 59-78 59-127 0-43-19-85-49-116z m-191 631l-20 99c-2 8-10 15-19 13-38-3-76-10-113-18-35-7-60-39-58-72 0-95 6-195 16-295 0-5 5-12 12-12 2-1 3-1 5-1 3 0 8 1 12 3 26 27 56 48 90 65 5 3 8 10 8 17-5 61-8 118-10 171 20 5 42 9 62 10 5 0 8 4 11 7 4 3 5 8 4 13z m-97 2c-8-2-13-8-13-17 0-55 3-113 10-176-24-12-44-27-64-44-8 87-13 174-13 260-2 15 13 32 32 35 30 7 63 14 95 17l13-65c-22-3-42-7-60-10z m395 92c-37 8-75 15-113 16-9 2-17-5-19-13l-20-98c0-5 0-10 4-14 3-3 6-6 11-6 22-2 42-5 62-9-2-55-5-111-10-171-2-7 2-14 8-17 34-17 65-38 90-65 4-3 7-5 12-5 2 0 5 2 5 2 7 1 12 6 12 13 11 100 16 200 16 295 2 33-23 65-58 72z m25-70c0-85-5-172-12-260-20 16-40 31-63 43 5 63 7 122 8 178 0 9-5 15-13 17-18 3-38 7-60 10l13 65c32-3 64-10 95-17 19-3 34-18 32-36z" horiz-adv-x="1000" />

<glyph glyph-name="019-gym-1" unicode="&#xe812;" d="M1000 647c0 54-22 105-59 144-39 39-90 59-144 59-48 0-93-16-129-46-35 10-72 1-98-25l-180-181-20 20c-7 7-17 12-29 12-10 0-21-4-29-12l-56-56c0 0 0 0 0 0l-11-11-231-231c-9-9-14-21-14-33s5-23 12-30l117-117c12-12 27-19 44-19s32 7 44 19l35 35c2 1 4 2 6 4l47 47c2 2 3 4 4 7l86 86c2 1 4 2 5 4l48 47c1 2 2 4 3 5l39 39c24 22 24 60 0 84l-6 5 112 112c6-42 25-81 57-112 31-31 69-51 111-57l-111-110-5 6c-24 22-63 22-85 0l-41-41c0-1-1-1-2-2l-47-47c-1-1-2-2-3-4l-89-90c-2 0-3-2-5-3l-47-47c-2-2-3-4-4-5l-33-34c-26-26-26-65 0-90l115-115c8-9 18-14 30-14 11 0 22 3 31 12l300 302c8 8 12 17 12 28s-4 21-12 29l-19 19 178 180c26 25 37 64 28 98 30 37 45 81 45 129z m-611-288l-143 144 24 23 143-143-24-24z m-25-24l-72-72-143 143 72 73 143-144z m-119-120l-143 144 23 23 144-143-24-24z m-52-51c-12-11-30-11-40 0l-116 115c-1 3-3 5-3 8s2 5 3 7l41 41 143-143-28-28z m275 274l-32-32-144 144 44 44c1 2 3 2 5 2s3 0 7-2l26-27c1-2 2-3 4-5l71-71c2-2 4-3 6-4l13-13c10-10 10-26 0-36z m124 317c11 12 28 20 45 20-25-32-40-72-44-115l-132-132-47 47 178 180z m35-108c0 45 17 88 49 120 2 1 3 2 4 4l3 1c1 1 2 2 3 4 31 26 69 40 111 40 45 0 88-17 120-49s49-75 49-120c0-40-13-77-37-107-3-1-5-3-7-5l-2-4c0-1 0-2-1-3-1 0-1-1-2-2-2-2-4-3-6-5-27-25-62-40-100-43-2 0-3 0-5-1 0 0-1 0-1 0-3 0-6 0-8 0-46 0-88 17-121 49-32 33-49 75-49 121z m24-549l-142 142 23 24 143-143-24-23z m-24-24l-73-73-142 142 73 73 142-142z m-120-121l-143 143 18 18 6 6 143-143-24-24z m-65-64c-3-3-10-3-13 0l-115 115c-12 10-12 29 0 41l27 27 142-142-41-41z m300 300l-44-44-142 142 30 31c6 3 12 7 19 7 7 0 14-4 19-9l17-17 71-71c0 0 0 0 0 0l32-32c2-2 2-4 2-5 0 0 0-2-4-2z m-17 75l-48 48 132 132c43 2 83 17 116 45-1-17-8-34-20-46l-180-179z m168 286c26 27 39 61 39 97 0 35-13 69-39 96-27 26-61 39-96 39-36 0-72-13-97-39-25-27-39-61-39-96 0-36 14-70 39-97 27-25 61-39 97-39 35 0 71 12 96 39z m-198 97c0 27 12 51 30 71 19 20 45 30 72 30 27 0 52-10 71-30 20-19 30-44 30-71 0-27-12-53-30-72-19-20-44-30-71-30s-53 12-72 30c-20 19-30 45-30 72z" horiz-adv-x="1000" />

<glyph glyph-name="020-weight-2" unicode="&#xe813;" d="M933 450h-16v83c0 65-52 117-117 117-33 0-62-13-83-35v18c0 65-52 117-117 117-33 0-62-13-83-35v18c0 65-52 117-117 117-65 0-117-52-117-117v-183h-220c-25 0-46-22-46-47v-306c0-25 21-47 46-47h220v-183c0-65 52-117 117-117 65 0 117 52 117 117v18c21-22 50-35 83-35 63 0 117 52 117 117v18c21-22 50-35 83-35 63 0 117 52 117 117v100h16c27 0 50 21 50 50v83c0 28-21 50-50 50z m-870-267c-6 0-13 7-13 14v20h67c8 0 16 6 16 16s-6 17-16 17h-67v33h50c8 0 17 7 17 17s-7 17-17 17h-50v33h33c9 0 17 7 17 17s-7 16-17 16h-33v120c0 7 7 14 13 14h220v-334h-220z m420-216c0-47-36-84-83-84s-83 37-83 84v200 366 200c0 47 36 84 83 84 45 0 83-37 83-84v-100-566-100z m200 100c0-47-36-84-83-84s-83 37-83 84v566c0 47 36 84 83 84 45 0 83-37 83-84v-100-366-100z m200 100c0-47-36-84-83-84-47 0-83 37-83 84v366c0 47 36 84 83 84 45 0 83-37 83-84v-100-150-116z m67 150c0-10-7-17-17-17h-16v117h16c10 0 17-7 17-17v-83z" horiz-adv-x="1000" />

<glyph glyph-name="021-dumbbell-7" unicode="&#xe814;" d="M975 122c-9 10-21 16-33 20 23 30 21 73-7 101-31 30-79 30-109 0l-27-27-135 135 135 135 27-27c13-15 32-23 53-23 21 0 39 12 54 25 15 14 23 35 23 54 0 16-6 32-16 46 12 3 24 9 33 19l4 4c29 29 29 74 0 103l-138 138c-31 31-78 31-109 0-10-10-17-22-20-34-31 24-74 22-103-6-30-31-30-79 0-109l28-28-134-134-137 137 27 27c15 13 23 32 23 53s-8 41-23 54c-14 15-33 23-54 23-15 0-31-5-45-15-3 12-10 24-20 34-31 31-78 31-109 0l-136-136c-31-31-31-78 0-109 10-10 21-17 33-20-23-31-21-73 7-101 15-15 35-23 54-23 19 0 38 8 53 21l28 28 136-136-137-137-27 27c-13 15-34 23-53 23-19 0-39-8-54-23-15-14-23-33-23-54 0-16 6-32 17-46-13-4-26-10-36-21l-2-2c-29-28-29-76 0-105l142-142c13-13 32-21 50-21 19 0 36 8 49 21l6 4c11 10 17 23 21 36 14-11 30-17 46-17 19 0 40 8 54 21 31 31 31 79 0 109l-27 27 137 137 135-135-27-27c-15-13-23-32-23-53 0-20 10-39 23-54 14-15 33-23 54-23 16 0 33 5 46 16 4-13 11-25 21-35l8-8c11-13 28-19 46-19s34 8 47 21l146 146c29 28 29 74 0 103l-2 2z m-218 674c7 8 17 12 27 12 11 0 21-4 26-14l138-137c14-14 14-35 0-48l-2-2c-11-13-30-15-45-6l-151 150c-3 6-5 12-5 19 0 9 4 19 12 26z m-121-93c-15 15-15 38 0 53 8 8 17 12 27 12s19-4 27-12l216-216c8-8 12-18 12-27s-4-19-12-27c-13-15-38-15-53 0l-27 27 0 0-163 163 0 0-27 27z m25-83l109-109-133-133-109 109 133 133z m-607 42l134 136c7 8 17 12 27 12 11 0 21-4 28-12 15-14 16-35 3-50l-146-145c-15-9-33-7-46 6-16 15-16 38 0 53z m94-174c-16-15-39-15-54 0-15 15-15 38 0 54l33 32c3 3 6 5 9 8l136 136c4 3 7 7 10 11l28 29c8 8 18 12 27 12s19-4 27-12c8-8 12-17 12-27s-4-19-12-27l-27-26-163-163-26-27z m135 80l54 54 137-136-1 0 163-163 1 1 133-133-109-109-432 432 54 54z m-40-664l-5-6c-12-12-33-12-44 0l-142 140c-14 15-14 38 0 52l2 1c7 8 17 12 27 12s19-2 26-10l136-136c16-15 16-38 0-53z m121 93c15-15 15-38 0-53-15-16-38-16-54 0l-40 40c0 0 0 0 0 0l-136 136c0 0 0 0 0 0l-40 40c-8 8-12 18-12 27s4 19 12 27c8 8 17 12 27 12 9 0 19-4 27-12l26-27 163-163 27-27z m109 217l-136-136-109 109 138 136 0 0 107-109z m163-268c-8 7-11 17-11 27s3 19 11 26l27 27v0l163 163v0l27 27c7 8 17 11 26 11s20-3 27-11c16-15 16-38 0-54l-40-40c0 0 0 0 0 0l-68-68-108-108c-14-16-39-16-54 0z m314 96l-145-146c-12-12-29-12-41 0l-7 8c-16 15-16 38 0 53l69 69 73 73c7 4 14 6 21 6 9 0 19-4 28-14l2-1c14-14 14-35 0-48z" horiz-adv-x="1000" />

<glyph glyph-name="022-locker" unicode="&#xe815;" d="M67-33h383c8 0 17 6 17 16v800c0 10-7 17-17 17h-383c-10 0-17-7-17-17v-800c0-10 7-16 17-16z m16 800h350v-767h-350v767z m467-800h383c9 0 17 6 17 16v800c0 10-7 17-17 17h-383c-10 0-17-7-17-17v-800c0-10 7-16 17-16z m17 800h350v-767h-350v767z m383 83h-417c-13 0-24-5-33-12-9 7-20 12-33 12h-417c-28 0-50-22-50-50v-833c0-23 14-41 33-48v-29c0-22 19-40 40-40h29c15 0 30 8 36 22l23 45h197l22-45c7-14 20-22 35-22h28c22 0 40 18 40 40v27h17 17v-27c0-22 18-40 40-40h28c15 0 30 8 37 22l22 45h197l22-45c7-14 20-22 35-22h29c21 0 40 18 41 40v30c19 7 32 25 32 47v833c0 28-22 50-50 50z m-417-33h417c10 0 17-7 17-17v-833c0-10-7-17-17-17h-98-219-100-16v850c0 10 6 17 16 17z m-500-17c0 10 7 17 17 17h417c10 0 16-7 16-17v-850h-16-100-217-100c-10 0-17 7-17 17v833z m75-913c-1-2-3-4-6-4h-29c-3 0-6 4-6 7v27h56l-15-30z m342 3c0-3-3-7-7-7h-28c-3 0-5 2-7 4l-15 30h57v-27z m142-3c-2-2-4-4-7-4h-28c-4 0-7 4-7 7v27h57l-15-30z m341 3c0-3-3-7-6-7h-29c-3 0-5 2-6 4l-15 30h56v-27z m-566 460c-10 0-17-7-17-17v-66c0-10 7-17 17-17 8 0 16 7 16 17v66c0 10-6 17-16 17z m33 400h-33c-10 0-17-7-17-17s7-16 17-16h33c8 0 17 6 17 16s-7 17-17 17z m0-50h-17c-10 0-16-7-16-17s6-16 16-16h17c8 0 17 6 17 16s-7 17-17 17z m-250-650h-33c-10 0-17-7-17-17s7-16 17-16h33c8 0 17 6 17 16s-7 17-17 17z m-33 17h16c9 0 17 6 17 16 0 10-7 17-17 17h-16c-10 0-17-7-17-17 0-10 7-16 17-16z m50 533h183c8 0 17 7 17 17s-7 16-17 16h-183c-10 0-17-6-17-16s7-17 17-17z m0-67h183c8 0 17 7 17 17s-7 17-17 17h-183c-10 0-17-7-17-17s7-17 17-17z m200-50c0 10-7 17-17 17h-183c-10 0-17-7-17-17s7-16 17-16h183c8 0 17 6 17 16z m483-133c-10 0-17-7-17-17v-66c0-10 7-17 17-17 8 0 17 7 17 17v66c0 10-7 17-17 17z m33 400h-33c-10 0-17-7-17-17s7-16 17-16h33c9 0 17 6 17 16s-7 17-17 17z m0-50h-16c-10 0-17-7-17-17s7-16 17-16h16c9 0 17 6 17 16s-7 17-17 17z m-250-650h-33c-10 0-17-7-17-17s7-16 17-16h33c9 0 17 6 17 16s-7 17-17 17z m-33 17h17c8 0 16 6 16 16 0 10-6 17-16 17h-17c-10 0-17-7-17-17 0-10 7-16 17-16z m50 533h183c9 0 17 7 17 17s-7 16-17 16h-183c-10 0-17-6-17-16s7-17 17-17z m0-67h183c9 0 17 7 17 17s-7 17-17 17h-183c-10 0-17-7-17-17s7-17 17-17z m200-50c0 10-7 17-17 17h-183c-10 0-17-7-17-17s7-16 17-16h183c9 0 17 6 17 16z" horiz-adv-x="1000" />

<glyph glyph-name="023-tasks" unicode="&#xe816;" d="M775 244v489c0 10-7 17-17 17h-183v17c0 10-7 16-17 16h-51c-9 39-42 67-82 67-40 0-73-28-82-67h-51c-10 0-17-6-17-16v-17h-183c-10 0-17-7-17-17v-833c0-10 7-17 17-17h523c32-21 69-33 110-33 110 0 200 90 200 200 0 93-64 171-150 194z m-33 473v-467c-5 0-12 0-17 0-6 0-11 0-17-1v418c0 10-6 16-16 16h-117v34h167z m-89-480c-67-26-115-85-126-156 0-1 0-1 0-2 0-2 0-4-1-6 0-1 0-3 0-4 0-1 0-2 0-3 0-2-1-4-1-7 0 0 0-1 0-1 0-3 0-5 0-8 0-21 3-40 9-59 0-1 0-1 1-2 0-1 0-3 1-4 0-1 0-1 1-2h-362v667h100v-17c0-10 7-16 17-16h266c10 0 17 6 17 16v17h100v-406c-7-2-15-5-22-7z m-345 513h50c10 0 17 7 17 17 0 28 22 50 50 50 28 0 50-22 50-50 0-10 7-17 17-17h50v-17-66-17h-234v17 66 17z m-200-33h167v-34h-117c-10 0-16-6-16-16v-700c0-10 6-17 16-17h394c7-12 15-23 24-33h-468v800z m617-834c-35 0-68 11-95 30 0 0 0 0 0 0-22 16-40 36-52 59 0 1-1 2-1 3-10 19-16 39-18 60 0 2 0 4 0 6 0 0 0 1 0 2-1 2-1 5-1 7 0 3 0 5 1 8 0 1 0 2 0 2 0 2 0 4 0 6 0 1 0 2 0 2 1 3 1 5 1 7 0 0 0 1 0 1 10 57 48 105 100 127 11 5 23 8 35 10 1 1 3 1 4 2 8 1 17 2 26 2 2 0 3 0 4 0 9-1 18-2 26-4 2 0 4 0 6 0 74-17 131-83 131-163 0-92-75-167-167-167z m-467 634h234c8 0 16 6 16 16s-6 17-16 17h-234c-10 0-16-7-16-17s6-16 16-16z m300 0h50c9 0 17 6 17 16s-7 17-17 17h-50c-10 0-16-7-16-17s6-16 16-16z m50-34h-166c-10 0-17-6-17-16s7-17 17-17h166c9 0 17 7 17 17s-7 16-17 16z m0-66h-66c-10 0-17-7-17-17s7-17 17-17h66c9 0 17 7 17 17s-7 17-17 17z m-350 33h117c8 0 17 7 17 17s-7 16-17 16h-117c-10 0-16-6-16-16s6-17 16-17z m0-67h50c9 0 17 7 17 17s-7 17-17 17h-50c-10 0-16-7-16-17s6-17 16-17z m0-66h134c8 0 16 6 16 16s-6 17-16 17h-134c-10 0-16-7-16-17s6-16 16-16z m100 83c0-10 7-17 17-17h100c8 0 17 7 17 17s-7 17-17 17h-100c-10 0-17-7-17-17z m250-50h-16c-10 0-17-7-17-17s7-16 17-16h16c9 0 17 6 17 16s-7 17-17 17z m-83-33c8 0 17 6 17 16s-7 17-17 17h-67c-10 0-16-7-16-17s6-16 16-16h67z m-250-34h-17c-10 0-16-6-16-16s6-17 16-17h17c8 0 17 7 17 17s-7 16-17 16z m333 0h-133c-10 0-17-6-17-16s7-17 17-17h133c9 0 17 7 17 17s-7 16-17 16z m-200 0h-66c-10 0-17-6-17-16s7-17 17-17h66c9 0 17 7 17 17s-7 16-17 16z m409-151c-9 5-19 3-24-5l-86-130-35 46c-5 7-17 9-24 4-6-5-8-17-3-24l47-62c1-3 3-5 5-7 3-3 7-4 11-4 1 0 1 0 2 0 0 0 0 0 1 0 0 0 0 0 1 0 0 0 0 1 0 1 2 0 4 1 6 2 3 2 5 5 6 8l98 147c5 9 3 19-5 24z" horiz-adv-x="1000" />

<glyph glyph-name="024-smartwatch" unicode="&#xe817;" d="M792 433h-25v162c0 48-40 88-89 88h-2l-11 20c-12 19-17 40-17 60 0 49-43 87-96 87h-170c-54 0-97-38-97-87 0-20-7-41-17-60l-11-20h-2c-48 0-88-40-88-88v-490c0-48 40-88 88-88h2l11-20c12-19 17-40 17-60 0-49 43-87 97-87h170c53 0 96 38 98 87 0 20 7 41 17 60l11 20h0c49 0 89 40 89 88v162h25c23 0 41 18 41 41v84c0 23-18 41-41 41z m-494 254c14 23 20 50 20 76 0 30 29 54 64 54h170c35 0 63-24 63-54 0-26 7-53 20-76l2-4h-342l3 4z m335-674c-13-23-20-50-20-76 0-30-28-54-63-54h-170c-35 0-63 24-63 54 0 26-7 53-20 76l-2 4h340l-2-4z m100 92c0-30-25-55-55-55h-423c-30 0-55 25-55 55v490c0 30 25 55 55 55h423c30 0 55-25 55-55v-162-166-162z m67 203c0-5-3-8-8-8h-25v100h25c5 0 8-3 8-8v-84z m-118-73h-34c-6 0-11-5-15-10l-30-62-38 142c-2 7-7 10-13 12-7 0-14-4-17-9l-45-75h-40c-5 0-10-1-13-6l-47-70-40 148c-2 7-7 10-13 12-7 1-14-2-17-7l-62-93h-25c-10 0-16-7-16-17 0-10 6-17 16-17h34c5 0 10 4 13 7l47 70 40-148c1-7 6-10 13-12 2 0 2 0 3 0 5 0 10 3 14 7l61 93h42c5 0 12 3 12 10l30 50 40-145c1-7 8-12 15-12 6-1 13 2 16 9l45 90h24c10 0 16 6 16 16s-6 17-16 17z m-332 315h233c9 0 17 7 17 17 0 10-7 16-17 16h-233c-10 0-17-6-17-16 0-10 7-17 17-17z m233-33h-50c-10 0-16-7-16-17s6-17 16-17h50c9 0 17 7 17 17s-7 17-17 17z m-233-34h117c8 0 16 7 16 17s-6 17-16 17h-117c-10 0-17-7-17-17s7-17 17-17z m133-33c-10 0-16-7-16-17 0-10 6-16 16-16h100c9 0 17 6 17 16 0 10-7 17-17 17h-100z m-133-33h67c8 0 16 6 16 16 0 10-6 17-16 17h-67c-10 0-17-7-17-17 0-10 7-16 17-16z" horiz-adv-x="1000" />

<glyph glyph-name="025-rings" unicode="&#xe818;" d="M717 471c-2 21-15 37-34 43v319c0 10-6 17-16 17h-67c-10 0-17-7-17-17v-319c-18-6-32-23-33-44-41-14-81-39-111-71-6 7-13 12-22 15v419c0 10-7 17-17 17h-67c-10 0-16-7-16-17v-419c-19-6-32-23-34-44-108-35-183-137-183-253 0-147 120-267 267-267 86 0 163 42 212 106 18-4 36-6 54-6 147 0 267 120 267 267 0 116-75 218-183 254z m-198-135c13 12 28 23 44 30 9-10 22-16 37-16h67c15 0 28 7 38 18 57-28 95-88 95-151 0-92-75-167-167-167-2 0-5 0-8 0 5 21 8 44 8 67 0 89-44 170-114 219z m98 481h33v-300h-33v300z m-34-350c0 10 7 16 17 16h67c10 0 16-6 16-16v-9-56c0-4-1-5-1-7-1-2-1-3-1-5-3-4-8-7-14-7h-67c-6 0-11 3-14 7 0 1-1 2-1 3-1 2-1 4-1 5-1 1-1 1-1 2v57 10z m-35-30v-35-2c-23-12-43-26-61-44-10 5-20 9-31 13 26 28 58 51 92 68z m-18-353c-39 32-63 80-63 131 0 10 1 21 3 32 39-31 63-79 63-130 0-11-1-22-3-33z m-197 166h36c-2-12-2-24-2-35 0-86 44-168 115-218-30-29-71-47-115-47-92 0-167 75-167 167 0 64 38 123 96 150 9-11 22-17 37-17z m107 17c-5-17-7-34-7-50 0-65 34-127 87-164-5-11-10-20-17-30-63 42-103 115-103 194 0 11 0 21 2 33 10 0 19 3 27 9 3 3 6 6 9 9 0 0 0 0 1-1 0 0 1 0 1 0z m-90 550h33v-400h-33v400z m-33-450c0 10 6 16 16 16h67c10 0 17-6 17-16v-9-56c0-4-2-5-2-7-1-2-1-4-2-6-2-3-7-6-13-6h-67c-6 0-11 3-14 7 0 1 0 2-1 3-1 2-1 4-1 5 0 1 0 1 0 2v57 10z m50-484c-129 0-234 105-234 234 0 96 60 183 150 218v-35 0-2c-70-31-116-103-116-181 0-110 90-200 200-200 61 0 115 27 152 70 0 1 1 1 1 1 2 3 4 6 6 9 26 33 41 75 41 120 0 78-47 150-117 181v2 35c12-5 23-10 33-17 1 0 2-1 3-1 70-42 114-117 114-200 0-26-4-51-12-75-1 0-1-1-1-2-3-7-5-14-9-21-37-80-118-136-211-136z m266 100c-11 0-22 2-34 3 6 11 11 21 15 32 7-1 13-1 19-1 110 0 200 90 200 200 0 78-46 150-116 181v2 35c90-35 150-122 150-218 0-129-105-234-234-234z" horiz-adv-x="1000" />

<glyph glyph-name="026-running-1" unicode="&#xe819;" d="M1000 45c0 65-52 116-117 116h-614l44 334h10c32 0 64 13 89 36 10 10 21 17 35 22 15 5 30 8 46 8h52c22 0 38 17 38 39v23c0 22-16 38-38 38h-198c-12 0-22 9-27 19l-62 136c-3 10-11 17-21 20s-20 4-30-1l-29-15c-18-10-26-32-18-50l55-127-32-127-98-359c-49-13-85-58-85-112 0-60 43-108 100-116v-18c0-28 22-50 50-50h183c27 0 50 22 50 50v17h350v-17c0-28 24-50 50-50h67c28 0 50 22 50 50v18c56 8 100 56 100 116z m-231 25c0 0 0-1 0-1 0-1 0-2 0-3-1-1-1-2-1-3 0-1 0-1 0-1 0-2-1-4-1-5 0-1 0-1 0-1 0-2 0-3 0-5 0-2 0-4 0-6s0-4 0-6c0-2 0-4 0-6 0 0 0 0 0 0 0-2 1-4 1-5 0 0 0-1 0-1 0-1 0-2 1-4 0 0 0-1 0-2 0-1 0-1 0-2 5-22 17-42 32-58h-51-383-168c16 16 27 36 32 58 0 1 0 1 0 2 0 1 0 2 0 2 1 2 1 3 1 4 0 0 0 1 0 1 0 1 1 3 1 5 0 0 0 0 0 0 0 2 0 4 0 6 0 2 0 4 0 6s0 4 0 6c0 2 0 3 0 5 0 0 0 0 0 1 0 1-1 3-1 5 0 0 0 0 0 1 0 1 0 2-1 3 0 1 0 2 0 3 0 0 0 1 0 1-5 23-16 43-32 58h51 551c-15-15-27-35-32-58z m-534 91h-113l9 34c1 0 2 0 2 0h50c9 0 17 6 17 16s-7 17-17 17h-43l9 33c1 0 1 0 1 0h50c8 0 17 7 17 17 0 10-7 17-17 17h-42l55 200h67l-45-334z m-45 622c-2 3 0 5 2 7l28 15c2 0 2 0 3 0s4 0 4-2l61-137c12-21 34-36 59-36h200c3 0 5-2 5-5v-24c0-3-2-5-5-5h-52c-20 0-40-3-58-10-19-6-35-16-49-30-18-18-40-28-63-28h-27-76l28 112c0 5 0 10-3 13l-57 130z m-157-738c0 46 37 83 84 83 45 0 83-37 83-83 0-47-37-84-83-84s-84 37-84 84z m317-134c0-10-7-16-17-16h-183c-10 0-17 6-17 16v17h217v-17z m517 0c0-10-9-16-17-16h-67c-10 0-16 8-16 16v17h100v-17z m16 50c-46 0-83 37-83 84 0 46 37 83 83 83 45 0 84-37 84-83 0-47-37-84-84-84z m-400 67h34c8 0 16 7 16 17 0 10-6 16-16 16h-34c-10 0-16-6-16-16 0-10 6-17 16-17z m100 0h34c8 0 16 7 16 17 0 10-6 16-16 16h-34c-10 0-16-6-16-16 0-10 6-17 16-17z m100 0h34c8 0 16 7 16 17 0 10-6 16-16 16h-34c-10 0-16-6-16-16 0-10 6-17 16-17z m-300 0h34c8 0 16 7 16 17 0 10-6 16-16 16h-34c-10 0-16-6-16-16 0-10 6-17 16-17z m-100 0h34c8 0 16 7 16 17 0 10-6 16-16 16h-34c-10 0-16-6-16-16 0-10 6-17 16-17z" horiz-adv-x="1000" />

<glyph glyph-name="027-jumping-rope" unicode="&#xe81a;" d="M1000 200c0 28-22 50-50 50h-33c-6 329-187 594-410 600-2 0-4 0-7 0s-5 0-7 0c-223-6-404-271-409-600h-34c-28 0-50-22-50-50 0-22 14-41 33-47v-70-133-50c0-28 24-50 50-50h34c26 0 50 22 50 50v50 133 70c19 7 33 25 33 47 0 28-22 50-50 50h-33c4 211 82 394 195 492-18-32-29-69-29-109 0-120 97-216 217-216s217 96 217 216c0 40-11 77-29 109 114-98 191-281 195-492h-33c-28 0-50-22-50-50 0-22 14-41 33-47v-70-133-50c0-28 24-50 50-50h34c26 0 50 22 50 50v50 133 70c19 7 33 25 33 47z m-867-100h-66v50h66v-50z m0-133h-66v100h66v-100z m-16-84h-34c-10 0-16 9-16 17v33h66v-33c0-10-8-17-16-17z m50 317c0-10-7-17-17-17h-100c-10 0-17 7-17 17 0 10 7 17 17 17h100c10 0 17-7 17-17z m516 433c0-101-81-183-183-183s-183 82-183 183c0 100 78 180 177 184 2 0 4 0 6 0s4 0 7 0c98-4 176-84 176-184z m250-533h-66v50h66v-50z m0-133h-66v100h66v-100z m-16-84h-34c-10 0-16 9-16 17v33h66v-33c0-10-8-17-16-17z m33 300h-100c-10 0-17 7-17 17 0 10 7 17 17 17h100c10 0 17-7 17-17 0-10-7-17-17-17z" horiz-adv-x="1000" />

<glyph glyph-name="028-scale" unicode="&#xe81b;" d="M811-48l-23 373c-3 50-45 89-96 89h-125v35h149c17 0 32 9 40 24l7 15c7 13 7 28-2 41-8 12-21 20-36 20h-90c7 9 13 18 17 29l3 10c15 51 15 106 0 156-17 42-60 68-105 62l-25-4 8 25c4 10-1 19-10 22-10 3-18-2-21-10l-13-38-41 6c-45 5-88-20-104-63-15-45-15-98 0-156l3-9c4-11 11-21 18-30h-81c-14 0-25-6-34-16s-11-24-8-37l3-15c5-18 22-32 42-32h146v-35h-124c-52 0-94-39-97-89l-23-373c-2-27 8-52 26-72 19-20 44-30 70-30h430c26 0 51 10 70 30 18 18 28 45 26 72z m-431 639l-3 7c-13 48-13 96 0 134 10 25 33 42 60 42 1 0 5 0 6 0l54-8c1 0 3 0 5 0l55 8c28 3 58-13 68-40 13-43 13-91 0-135l-3-8c-10-25-34-42-60-42h-122c-27 0-50 17-60 42z m-101-102l-4 15c-1 4 0 7 2 9 0 1 3 3 7 3v2h137c6-1 11-2 17-2h122c6 0 12 1 18 2h145c5 0 8-4 8-5s2-5 0-10l-6-15c-2-4-5-5-9-5h-166-100-163c-3 0-8 3-8 6z m254-40v-33h-66v33h66z m228-546c-13-13-28-20-46-20h-430c-18 0-33 7-46 20-12 12-19 29-17 47l23 373c2 33 30 60 64 60h141 100 142c33 0 61-27 63-60l23-373c2-17-5-33-17-47z m-261 430c-110 0-200-90-200-200s90-200 200-200 200 90 200 200-90 200-200 200z m0-367c-92 0-166 76-166 167s74 167 166 167 167-75 167-167-75-167-167-167z m60 137c4 9 7 19 7 30 0 37-30 67-67 67s-67-30-67-67 30-67 67-67c14 0 27 5 38 12l27-26c3-4 7-5 12-5s8 1 11 5c7 6 7 16 0 23l-28 28z m-93 30c0 18 15 33 33 33s33-15 33-33c0-8-2-15-7-20 0-1-1-1-1-2-6-7-15-11-25-11-18 0-33 15-33 33z" horiz-adv-x="1000" />

<glyph glyph-name="029-bottle-1" unicode="&#xe81c;" d="M678 535c22 5 39 26 39 48v50c0 27-22 50-50 50h-50v50c0 10-7 17-17 17h-33v83c0 10-7 17-17 17h-100c-10 0-17-7-17-17v-83h-33c-10 0-17-7-17-17v-50h-50c-26 0-50-21-50-50v-50c0-23 17-44 41-49 16-25 26-65 26-101 0-35-11-74-26-100-22-5-41-25-41-50v-383c0-27 22-50 50-50h334c26 0 50 23 50 50v383c0 24-17 45-41 49-16 26-26 66-26 101 0 27 18 77 28 102z m-40-202h-276c13 30 21 67 21 100 0 34-8 70-21 100h280c-10-26-25-71-25-100 0-33 8-70 21-100z m-171 484h66v-67h-66v67z m-50-100h33 100 33v-34h-166v34z m-100-84c0 9 6 17 16 17h67 200 67c8 0 16-7 16-17v-50c0-8-6-16-16-16h-334c-8 0-16 6-16 16v50z m366-733c0-8-6-17-16-17h-334c-8 0-16 7-16 17v383c0 9 6 17 16 17h334c8 0 16-7 16-17v-383z m-116 217h-94l72 71c7 7 7 17 0 24-7 6-17 6-23 0l-100-100c-5-5-5-14-4-20 2-7 9-10 15-10h97l-77-89c-6-6-5-16 2-23 3-2 8-3 12-3 5 0 10 1 13 5l100 116c3 5 5 12 2 19-4 6-9 10-15 10z" horiz-adv-x="1000" />

<glyph glyph-name="030-weight-1" unicode="&#xe81d;" d="M918 72l-4 31c-25 177-25 354 0 529 14 96-70 125-98 135-7 1-143 50-203 66-35 10-74 15-112 17 0 0 0 0-2 0h-1c-39 0-75-7-112-17-60-16-198-65-203-66-47-17-107-49-97-134 18-175 18-358 0-530l-3-31c-5-57 13-114 51-155 39-44 94-67 150-67h434c56 0 110 23 148 67 38 41 57 98 52 155z m-77-134c-32-35-78-55-125-55h-433c-47 0-94 20-125 55s-49 84-44 130l4 29c18 173 18 360 0 536-5 52 16 80 76 100 2 0 144 50 202 67 33 10 68 15 103 17 37-2 72-7 104-15 60-17 200-67 201-67 60-20 84-50 77-98-25-177-25-359 0-537l3-32c5-48-11-95-43-130z m-142 867c-36 12-66 22-85 27-35 10-73 15-111 16h-2-2c-38 0-75-6-111-16-19-5-47-15-85-27-9-2-14-10-12-18l2-9c5-28 5-61 5-91v-4c0-55 46-100 105-100h196c55 0 99 44 99 100 0 32 6 67 11 95l2 9c2 8-3 15-12 18z m-35-122c0-38-28-66-65-66h-196c-39 0-72 30-72 66v4c0 30 0 61-5 91 30 10 53 19 70 22 33 10 68 15 105 15s72-5 105-15c15-5 40-12 70-22-5-28-12-61-12-95z m-66 84h-200c-10 0-17-7-17-17v-83c0-10 7-17 17-17h200c8 0 16 8 16 17v83c0 10-6 17-16 17z m-17-84h-167v50h167v-50z m-183-216h-167c-10 0-17-7-17-17 0-10 7-17 17-17h167c8 0 16 7 16 17 0 10-6 17-16 17z m-34-67h-133c-10 0-17-7-17-17s7-16 17-16h133c9 0 17 6 17 16s-7 17-17 17z m-33-67h-100c-10 0-17-6-17-16 0-10 7-17 17-17h100c8 0 17 7 17 17s-7 16-17 16z m-17-66h-83c-10 0-17-7-17-17s7-17 17-17h83c9 0 17 7 17 17s-7 17-17 17z m450 200h-166c-10 0-17-7-17-17 0-10 7-17 17-17h166c9 0 17 7 17 17 0 10-7 17-17 17z m0-67h-133c-10 0-17-7-17-17s7-16 17-16h133c9 0 17 6 17 16s-7 17-17 17z m0-67h-100c-10 0-16-6-16-16 0-10 6-17 16-17h100c9 0 17 7 17 17s-7 16-17 16z m0-66h-83c-10 0-17-7-17-17s7-17 17-17h83c9 0 17 7 17 17s-7 17-17 17z m-433-67h-100c-10 0-17-7-17-17 0-10 7-16 17-16h100c8 0 17 6 17 16 0 10-7 17-17 17z m33-67h-133c-10 0-17-6-17-16s7-17 17-17h133c9 0 17 7 17 17s-7 16-17 16z m34-66h-167c-10 0-17-7-17-17s7-17 17-17h167c8 0 16 7 16 17s-6 17-16 17z m366 133h-100c-10 0-16-7-16-17 0-10 6-16 16-16h100c9 0 17 6 17 16 0 10-7 17-17 17z m0-67h-133c-10 0-17-6-17-16s7-17 17-17h133c9 0 17 7 17 17s-7 16-17 16z m0-66h-166c-10 0-17-7-17-17s7-17 17-17h166c9 0 17 7 17 17s-7 17-17 17z" horiz-adv-x="1000" />

<glyph glyph-name="031-dumbbell-6" unicode="&#xe81e;" d="M942 742c-10 0-20-3-28-8-8 24-30 41-56 41-31 0-58-27-58-58v-25h-600v25c0 31-27 58-58 58-26 0-48-17-56-41-8 5-18 8-28 8-31 0-58-27-58-59v-83c0-32 27-58 58-58 10 0 20 2 28 7 8-23 30-41 56-41 31 0 58 27 58 59v25h33v-50c0-10 7-17 17-17h17v-583c0-10 6-17 16-17 9 0 17 7 17 17v583h17c8 0 16 7 16 17v50h334v-50c0-10 6-17 16-17h17v-583c0-10 7-17 17-17 8 0 16 7 16 17v583h17c8 0 17 7 17 17v50h33v-25c0-32 27-59 58-59 26 0 48 18 56 41 8-5 18-7 28-7 31 0 58 26 58 58v83c0 32-27 59-58 59z m-884-167c-13 0-25 12-25 25v83c0 14 12 25 25 25s25-11 25-25v-83c0-13-11-25-25-25z m109-8c0-14-12-25-25-25-14 0-25 11-25 25v33 83 34c0 13 11 25 25 25 13 0 25-12 25-25v-42-67-41z m133-9h-33v34h33v-34z m433 0h-33v34h33v-34z m17 67h-67-366-67-50v33h600v-33h-50z m133-58c0-14-11-25-25-25-13 0-25 11-25 25v41 67 42c0 13 12 25 25 25 14 0 25-12 25-25v-34-83-33z m84 33c0-13-12-25-25-25-14 0-25 12-25 25v83c0 14 11 25 25 25 13 0 25-11 25-25v-83z m-350-325h-234c-28 0-50-22-50-50 0-22 14-41 34-47v-236c0-10 6-17 16-17s17 7 17 17v233h200v-233c0-10 7-17 17-17 8 0 16 7 16 17v236c19 7 34 25 34 47 0 28-22 50-50 50z m0-67h-234c-10 0-16 7-16 17s6 17 16 17h234c10 0 16-7 16-17s-6-17-16-17z" horiz-adv-x="1000" />

<glyph glyph-name="032-bag" unicode="&#xe81f;" d="M867 367h-67c-7 222-139 400-300 400-153 0-277-178-283-400h-84c-73 0-133-60-133-134v-166c0-74 60-134 133-134h100 67 417 66 84c73 0 133 60 133 134v166c0 74-60 134-133 134z m-367 366c143 0 260-163 267-366h-34c-6 185-108 333-233 333-115 0-212-152-217-333h-33c7 203 115 366 250 366z m-183-400h383v-366h-383v366z m0 34c5 161 88 300 183 300 107 0 194-133 200-300h-383z m-284-300v166c0 55 45 100 100 100h84v-366h-84c-55 0-100 45-100 100z m217-100v366h33v-366h-33z m483 0v366h34v-366h-34z m234 100c0-55-45-100-100-100h-67v366h67c55 0 100-45 100-100v-166z m-400 166h-134c-36 0-66-30-66-66v-34c0-36 30-66 66-66h134c36 0 66 30 66 66v34c0 36-30 66-66 66z m33-100c0-18-15-33-33-33h-134c-18 0-33 15-33 33v34c0 18 15 33 33 33h134c18 0 33-15 33-33v-34z" horiz-adv-x="1000" />

<glyph glyph-name="033-proteins-1" unicode="&#xe820;" d="M582 257c-4 6-9 10-15 10h-94l72 71c7 7 7 17 0 24s-17 6-23 0l-100-100c-5-5-5-14-4-20s9-10 15-10h97l-77-89c-6-6-5-16 2-23 3-2 8-3 12-3 5 0 10 1 13 5l100 116c3 5 5 12 2 19z m128 165c0 0 0 1-1 2-4 15-10 29-17 43l-32 58c-27 49-42 105-43 162 19 7 33 26 33 48v63c0 29-23 52-52 52h-196c-29 0-52-23-52-52v-63c0-22 14-41 33-48-1-57-16-113-43-162l-32-58c-7-14-13-28-17-43-1-1-1-2-1-2-5-17-7-35-7-52v-303-157c0-33 27-60 60-60h312c35 0 62 27 62 62v155 303c0 17-2 35-7 52z m-393-52c0 8 0 16 2 24 0 2 0 4 1 6h359c2-10 3-20 3-30v-287h-365v287z m85 447h196c10 0 19-9 19-19v-15h-100c-10 0-17-6-17-16s7-17 17-17h100v-15c0-10-9-18-19-18h-196c-10 0-19 8-19 18v15h34c8 0 16 7 16 17s-6 16-16 16h-34v15c0 10 9 19 19 19z m-32-309c28 54 45 114 47 175h166c2-61 19-121 47-173l32-58c3-6 6-12 8-19h-341c2 6 5 12 8 17l33 58z m285-625h-312c-15 0-26 12-26 29v5h83c8 0 17 6 17 16s-7 17-17 17h-83v33h50c8 0 16 7 16 17s-6 17-16 17h-50v33h365v-140c0-15-12-27-27-27z" horiz-adv-x="1000" />

<glyph glyph-name="034-gym" unicode="&#xe821;" d="M925 192c0 16-7 31-18 41 11 11 18 26 18 42 0 32-27 58-58 58h-9v350c0 60-43 108-100 116v34c0 10-6 17-16 17s-17-7-17-17v-33h-115l-2 33c0 10-8 17-16 17h-100c-9 0-17-8-17-17l-1-33h-132c-84 0-150-67-150-150v-33c0-4 0-7 1-9l49-80v-61h-9c-23 0-41-19-41-40v-52c0-23 18-42 41-42h50c24 0 42 19 44 40v52c0 23-19 42-42 42h-10v61l48 80c2 2 2 5 2 9v33c0 10 7 17 17 17h127l-18-517h-324c-29 0-52-23-52-53v-29c0-28 23-51 52-51h31v-150c0-10 7-17 17-17 8 0 17 7 17 17v150h254l-4-120c0-12 5-25 13-34 8-8 20-13 33-13h107c12 0 23 5 32 13 10 9 13 20 13 34l-26 770h13c6-50 46-92 98-99v-235h-8c-32 0-59-26-59-58 0-16 7-31 18-42-11-10-18-25-18-41s7-31 18-42c-11-11-18-25-18-42 0-31 27-58 59-58h150c31 0 58 27 58 58 0 17-7 31-18 42 11 11 18 26 18 42z m-632 235v-52c0-5-3-8-8-8h-52c-5 0-8 3-8 6v52c0 5 3 8 8 8v2h18c2-1 4-2 7-2 3 0 5 1 8 2h19c5 0 8-3 8-8z m-1 223v-28l-34-55-33 55v28c0 65 52 117 117 117h130l-2-67h-128c-29 0-50-22-50-50z m-184-580v28c0 10 9 19 19 19h321l-1-67h-320c-10 0-19 8-19 20z m634 613c8 0 16 7 16 17v12c10-6 17-16 17-29 0-18-15-33-33-33s-34 15-34 33c0 13 7 23 17 29v-12c0-10 7-17 17-17z m-139-796c-1-2-5-4-8-4h-107c-3 0-6 0-8 4s-3 6-3 10l31 920h67l32-920c0-5-2-9-4-10z m139 713c-47 0-84 37-84 83 0 10-6 17-16 17h-29l-2 67h114v-19c-29-8-50-34-50-65 0-36 30-66 67-66s66 30 66 66c0 31-21 57-50 65v17c39-7 67-41 67-82v-350h-67v250c0 10-6 17-16 17z m-50-325c0 13 11 25 25 25h25 100 25c13 0 25-12 25-25s-12-25-25-25h-150c-14 0-25 12-25 25z m200-167c0-13-12-25-25-25h-150c-14 0-25 12-25 25s11 25 25 25h150c13 0 25-11 25-25z m-175 59c-14 0-25 11-25 25s11 25 25 25h150c13 0 25-12 25-25s-12-25-25-25h-150z" horiz-adv-x="1000" />

<glyph glyph-name="035-dumbbell-5" unicode="&#xe822;" d="M769 465c11 98 16 196 16 288 2 34-23 65-58 72-154 33-307 33-452 0-35-7-60-38-58-72 0-92 6-189 16-286-62-66-100-154-100-250 0-202 165-367 367-367s367 165 367 367c0 95-37 183-98 248z m-269 118c-50 0-98-10-142-28-4 53-6 102-8 148 52 9 103 14 150 14s95-5 150-15c-1-48-4-96-8-147-44 18-92 28-142 28z m-220 209c142 33 290 33 438 0 19-4 34-19 32-37 0-85-5-172-12-260-18 15-36 29-56 40-2 1-5 2-7 4 5 61 7 119 8 178 0 8-6 15-13 16-63 12-117 17-170 17-53 0-112-5-170-17-8-1-13-8-13-16 0-55 3-114 10-177-24-13-44-27-64-43-8 86-13 173-13 260-2 15 13 31 30 35z m220-909c-183 0-333 150-333 334s150 333 333 333c51 0 100-12 143-32 1-2 3-4 5-5 34-16 65-38 90-65 1-1 3-2 4-2 56-60 91-141 91-229 0-184-150-334-333-334z m-232 302c0 10-8 17-18 15-10-2-15-10-13-20 6-53 30-105 68-145 3-3 7-5 12-5 3 0 8 2 10 5 8 7 8 17 1 23-33 35-53 79-60 127z m232-200c-28 0-57 5-83 15-9 3-19-2-22-10s2-18 10-22c30-11 62-18 95-18 8 0 17 8 17 18s-7 17-17 17z m-140 40c-10 0-17-7-17-17s7-16 17-16 17 8 17 16c0 10-7 17-17 17z" horiz-adv-x="1000" />

<glyph glyph-name="036-bottle" unicode="&#xe823;" d="M633 700h-50v42c0 20-15 37-33 40v26c0 24-18 42-40 42h-18c-24 0-42-18-42-42v-25h-17c-10 0-16-6-16-16v-67h-50c-29 0-50-22-50-50v-67-81c0-4 1-9 5-12 28-28 45-67 45-107s-17-78-45-106c-4-4-5-7-5-12v-98-267c0-28 21-50 50-50h266c27 0 50 22 50 50v267 98c0 5-1 8-5 12-28 28-45 66-45 106s17 79 45 107c4 3 5 7 5 12v81 67c0 28-21 50-50 50z m-150 108c0 5 4 9 7 9h18c5 0 9-4 9-9v-25h-34v25z m-33-58h17 66 7c5 0 10-3 10-8v-42h-100v50z m-100-100c0 10 7 17 17 17h66 134 66c10 0 17-7 17-17v-50h-300v50z m300-750c0-10-7-17-17-17h-266c-10 0-17 7-17 17v250h300v-250z m0 612c-32-35-50-79-50-127s18-92 50-127v-75h-300v75c32 34 50 77 50 125s-18 92-50 127v57h300v-55z m-200-129h67l-64-90c-6-8-3-18 4-23 3-2 6-3 10-3 5 0 10 1 13 8l83 117c4 5 5 11 2 16s-8 9-15 9h-65l60 73c7 7 5 17-2 23s-16 5-23-1l-83-100c-4-5-5-12-2-19s8-10 15-10z" horiz-adv-x="1000" />

<glyph glyph-name="037-measuring-tape" unicode="&#xe824;" d="M509 698c-277 0-492-112-492-255v-186c0-17 3-35 10-52-17-15-27-36-27-60v-66c0-43 34-76 76-76h110 34 289c9 0 19 0 29 0 2 0 3 0 4 0 2 0 4 0 5 0 27 1 53 3 78 6 1 0 1 0 2 0 2 0 4 1 5 1 28 4 55 9 80 15 2 0 4 0 6 1 168 40 282 127 282 231v186c0 143-215 255-491 255z m0-34c247 0 457-102 457-221s-210-220-457-220-458 102-458 220 210 221 458 221z m-453-441c-3 12-5 22-5 34v91c4-5 8-10 13-15 40-44 104-81 183-106 4-2 8-3 12-4h-39-34-110-20z m130-187h-110c-23 0-42 19-42 45v66c0 23 19 42 42 42h110v-153z m780 221c0-13-2-25-7-37-3 2-6 3-10 3-10 0-17-7-17-17v-30c-9-11-21-22-34-32v11c0 10-6 17-17 17-10 0-17-7-17-17v-34c-15-10-32-18-50-26v26c0 10-7 17-17 17s-17-7-17-17v-40c-16-6-33-11-51-16v22c0 11-7 17-17 17s-17-6-17-17v-30c-17-4-33-7-51-10v23c0 11-7 17-17 17s-17-6-17-17v-28c-16-2-33-3-51-4v32c0 11-6 17-17 17s-17-6-17-17v-33c-5 0-11-1-16-1h-34v34c0 11-7 17-17 17s-17-6-17-17v-34h-51v34c0 11-7 17-17 17s-17-6-17-17v-34h-51v34c0 11-7 17-17 17-10 0-17-6-17-17v-34h-51v153h289c3 0 7 0 11 0 1 0 3 0 4 0 3 0 5 0 7 0 2 0 4 0 6 0 1 0 2 1 4 1 174 5 320 55 398 129 0 0 0 0 1 0 1 1 1 2 2 3 9 8 17 17 24 26v-91z m-457 34c161 0 288 68 288 152s-127 153-288 153-289-68-289-153 128-152 289-152z m0 271c137 0 254-54 254-119 0-64-117-118-254-118s-255 54-255 118c0 65 117 119 255 119z m0-203c86 0 152 35 152 84s-66 85-152 85c-87 0-153-36-153-85s66-84 153-84z m0 135c67 0 118-27 118-51s-51-51-118-51c-68 0-119 28-119 51s51 51 119 51z m-458-381c0-32 27-60 59-60s60 28 60 60-28 59-60 59-59-27-59-59z m59 25c14 0 26-12 26-25s-12-26-26-26-25 12-25 26 12 25 25 25z" horiz-adv-x="1000" />

<glyph glyph-name="038-dumbbell-4" unicode="&#xe825;" d="M933 500c-12 0-23-3-33-9-4 33-32 59-67 59-12 0-23-3-33-9-4 33-32 59-67 59-36 0-66-30-66-67v-83h-334v83c0 37-30 67-66 67-34 0-63-26-67-59-9 6-21 9-33 9-34 0-63-26-67-59-9 6-21 9-33 9-37 0-67-30-67-67v-166c0-37 30-67 67-67 12 0 24 3 33 9 4-33 33-59 67-59 12 0 24 3 33 9 4-33 33-59 67-59 36 0 66 30 66 67v83h334v-83c0-37 30-67 66-67 35 0 63 26 67 59 10-6 21-9 33-9 35 0 63 26 67 59 10-6 21-9 33-9 37 0 67 30 67 67v166c0 37-30 67-67 67z m-866-267c-19 0-34 15-34 34v166c0 19 15 34 34 34s33-15 33-34v-166c0-19-15-34-33-34z m100-50c-19 0-34 15-34 34v50 166 50c0 19 15 34 34 34s33-15 33-34v-266c0-19-15-34-33-34z m133-16c0-19-15-34-33-34s-34 15-34 34v50 266 50c0 19 15 34 34 34s33-15 33-34v-83-200-83z m283 116c0 10-6 17-16 17-10 0-17-7-17-17h-33c0 10-7 17-17 17s-17-7-17-17h-33c0 10-7 17-17 17-10 0-16-7-16-17h-84v134h84c0-10 6-17 16-17 10 0 17 7 17 17h33c0-10 7-17 17-17s17 7 17 17h33c0-10 7-17 17-17 8 0 16 7 16 17h84v-134h-84z m184-116c0-19-15-34-34-34-18 0-33 15-33 34v83 200 83c0 19 15 34 33 34 19 0 34-15 34-34v-50-266-50z m100 50c0-19-15-34-34-34s-33 15-33 34v266c0 19 15 34 33 34s34-15 34-34v-50-166-50z m100 50c0-19-15-34-34-34s-33 15-33 34v166c0 19 15 34 33 34s34-15 34-34v-166z m-500 100c10 0 16 6 16 16 0 10-6 17-16 17s-17-7-17-17c0-10 7-16 17-16z m66 0c10 0 17 6 17 16 0 10-7 17-17 17-10 0-16-7-16-17 0-10 6-16 16-16z m-100 0c-10 0-16-7-16-17s6-17 16-17c10 0 17 7 17 17s-7 17-17 17z m67 0c-10 0-17-7-17-17s7-17 17-17 17 7 17 17-7 17-17 17z m67 0c-10 0-17-7-17-17s7-17 17-17c8 0 16 7 16 17s-6 17-16 17z m-100-34c-10 0-17-6-17-16s7-17 17-17 16 7 16 17-6 16-16 16z m66 0c-10 0-16-6-16-16s6-17 16-17 17 7 17 17-7 16-17 16z" horiz-adv-x="1000" />

<glyph glyph-name="039-stationary-bicycle" unicode="&#xe826;" d="M250 196c36 0 66 30 66 67 0 36-30 66-66 66-37 0-67-30-67-66 0-37 30-67 67-67z m0 100c18 0 33-15 33-33s-15-33-33-33-34 15-34 33 15 33 34 33z m749-15c0 116-85 212-196 230l-28 135h25c2-34 13-67 57-79 9-1 19-3 27-3 13 0 28 3 43 7l62 25c10 3 13 11 10 21-4 10-14 14-22 10l-61-25c-17-6-34-6-49-3-22 6-32 19-34 47h16c18 0 33 15 33 33v33c0 19-15 34-33 34h-216c-19 0-34-15-34-34v-33c0-18 15-33 34-33h19l33-146c-58-21-105-65-131-124l-276 18-58 235h26c30 0 54 23 54 55 0 25-17 45-40 52l-145 33c-17 3-32 0-45-10-13-10-20-25-20-42v-36c0-29 23-52 52-52h1l8-33h-94c-10 0-17-7-17-17s7-17 17-17h16v-16c0-10 7-17 17-17 8 0 17 7 17 17v16h52l47-196c-30-24-49-62-49-103 0-32 11-61 29-84l-74-149h-5c-29 0-50-22-50-50 0-29 23-50 50-50h849c28 0 50 21 50 50 0 28-24 50-50 50h-10l-12 56c63 42 105 114 105 195z m-749-151c10 0 20 1 28 3l282 37c41-75 120-124 206-124 5 0 11 1 16 1l4-17h-592l51 100c2 0 3 0 5 0z m383 582h216v-33h-95-88-33v33z m53-66h53l28-132c0 0-1 0-1 0-17 0-33-2-49-5l-31 137z m22-175c1 0 2 0 3 0 18 5 36 8 55 8 5 0 10 0 15 0 2-1 5-1 8-1 2-1 4-1 6-1 96-14 171-97 171-197 0-110-90-200-200-200-70 0-133 36-170 94l171 22c45 0 82 39 82 84 0 46-37 83-82 83l-178 11c26 48 68 82 119 97z m-625 210v36c0 7 2 12 7 17 3 2 7 3 12 3 1 0 3-1 5-1l144-34c9-1 15-10 15-20 0-11-8-20-20-20h-48-81-15c-10 0-19 9-19 19z m102-52l60-228c-17-2-34-5-49-12l-58 240h47z m65-266c3 0 6 0 11 0l503-34c2 0 2 0 2 0 28 0 50-21 50-49 0-29-22-50-50-50h-2l-214-28-6-1 0 0-271-35c-10-2-20-3-29-3-2 1-4 2-6 2-23 1-43 11-60 28-17 18-28 43-28 70 0 55 45 100 100 100z m-77-210c12-8 25-13 38-18l-54-105h-47l63 123z m759-173c0-10-8-17-16-17h-849c-10 0-17 7-17 17s8 16 17 16h16 84 640 84 25c10 0 16-6 16-16z m-61 50h-50l-5 21c2 1 5 2 8 3 13 3 26 8 38 14l9-38z" horiz-adv-x="1000" />

<glyph glyph-name="040-gold-medal" unicode="&#xe827;" d="M517 333c0 10-7 17-17 17-120 0-217-98-217-218 0-10 7-17 17-17 8 0 17 8 17 17 0 101 81 185 183 185 10 0 17 6 17 16z m-17-383c-10 0-17-7-17-17s7-16 17-16c120 0 217 96 217 215 0 10-7 16-17 16s-17-6-17-16c0-100-81-182-183-182z m82 190c-4 7-9 10-15 10h-94l72 70c7 7 7 17 0 23-7 7-17 7-23 0l-100-100c-5-5-5-11-4-18 2-7 9-10 15-10h97l-77-88c-6-7-5-17 2-24 3-1 8-3 12-3 5 0 10 2 13 5l100 117c3 5 5 11 2 18z m396 563c4 4 5 7 5 12s-1 8-5 12l-113 113c-2 7-8 10-15 10h-698c-1 0-1 0-2 0 0 0 0 0-1 0 0 0 0 0 0 0-1 0-1 0-1 0-6-1-12-5-13-10l-113-113c-4-4-5-9-5-12s1-8 5-12l245-243v-160c0-2 0-4 1-6-32-46-51-102-51-162 0-155 126-282 283-282s283 127 283 282c0 60-18 115-50 161v167l245 243z m-278-370c0 1 0 1-1 1-48 48-113 79-185 82 0 0-1 0-1 0-2 0-4 1-6 1-2 0-5 0-7 0-2 0-5 0-7 0-2 0-4-1-6-1 0 0-1 0-1 0-72-3-137-34-185-82 0 0-1 0-1-1v117h400v-117z m10 150h-172l312 325 93-93-233-232z m-27 200h-366l-127 134h620l-127-134z m-32-33l-151-158-151 158h302z m-501 160l312-327h-172l-233 232 93 95z m350-927c-138 0-250 112-250 249 0 99 57 185 141 226 0 0 1 0 1 1 1 0 1 0 2 0 33 16 69 24 106 24 2 0 5 0 7 0 1 0 1 0 2 0 2 0 4 0 5 0 1 0 2 0 2 0 2 0 4 0 5-1 1 0 2 0 2 0 2 0 4 0 6 0 0 0 1 0 2 0 1-1 3-1 5-1 1 0 1 0 2 0 2-1 4-1 6-2 1 0 2 0 3 0 1 0 2-1 4-1 1 0 3-1 5-1 0 0 0 0 1 0 111-26 193-127 193-245 0-137-112-249-250-249z" horiz-adv-x="1000" />

<glyph glyph-name="041-proteins" unicode="&#xe828;" d="M700 582v35h50c27 0 50 21 50 50v133c0 27-22 50-50 50h-500c-27 0-50-22-50-50v-133c0-27 22-50 50-50h50v-35c-65-8-117-64-117-132v-50-367-50c0-73 60-133 134-133h366c74 0 134 60 134 133v50 367 50c0 68-51 124-117 132z m-467 85v16h167c8 0 17 7 17 17s-7 17-17 17h-167v33h67c8 0 17 7 17 17s-7 16-17 16h-67v17c0 8 7 17 17 17h500c8 0 17-7 17-17v-17h-167c-10 0-17-6-17-16 0-9 7-17 17-17h167v-33h-67c-8 0-17-7-17-17 0-8 7-17 17-17h67v-16c0-9-7-17-17-17h-67-366-67c-8 0-17 7-17 17z m434-50v-34h-334v34h334z m-350-67h366c55 0 100-45 100-100v-33h-566v33c0 55 45 100 100 100z m466-500h-566v333h566v-333z m-100-167h-366c-55 0-100 45-100 100v34h566v-34c0-55-45-100-100-100z m-250 315h97l-77-88c-6-7-5-17 2-23 3-2 8-4 12-4 5 0 10 2 13 5l100 117c3 5 5 12 2 18s-9 10-15 10h-97l75 89c7 6 5 16-2 23s-16 5-23-2l-100-116c-3-5-5-12-2-19s9-10 15-10z" horiz-adv-x="1000" />

<glyph glyph-name="042-steroids" unicode="&#xe829;" d="M995 730l-27 27c-1 1-2 3-4 5l-59 59c-2 2-3 3-5 4l-20 20c-7 7-17 7-24 0s-7-17 0-24l13-12-84-84-37 37c-7 7-17 7-24 0s-7-17 0-24l12-13-492-490c-3-4-5-7-5-12 0-5 2-9 5-12l24-24-48-47c-6-7-10-15-10-26 0-9 3-17 9-24l-214-211c-7-7-7-17 0-24 4-3 7-5 12-5 3 0 8 2 12 5l214 211c7-6 17-9 25-9 10 0 18 3 24 12l47 47 25-25c4-4 7-5 12-5 4 0 9 1 12 5l493 490 11-11c3-3 6-5 11-5s9 0 12 5c7 7 7 17 0 24l-47 48 84 83 19-19c4-3 7-5 12-5 3 0 9 2 12 5 7 7 7 17 0 24z m-725-639h-2l-22 22v1l47 48 24-24-47-47z m106 34l-21 21c-1 2-2 4-4 6l-48 47c-1 2-3 3-5 4l-18 18 120 121h193l-217-217z m251 250h-193l134 134 35-35c4-4 7-5 12-5 5 0 9 1 12 5 7 7 7 17 0 24l-35 35 24 25 37-37c3-3 6-5 11-5 4 0 9 2 12 5 7 7 7 17 0 24l-36 36 24 25 36-36c3-3 7-5 12-5 3 0 8 0 12 5 7 7 7 17 0 24l-36 36 24 23 36-35c3-4 6-5 11-5s9 1 12 5c7 7 7 17 0 24l-35 35 23 24 97-97-229-229z m216 291l-35 36 82 84 35-36-82-84z" horiz-adv-x="1000" />

<glyph glyph-name="043-running" unicode="&#xe82a;" d="M983 633l-1 2c-23 22-63 22-85 0l-90-92c-5-5-12-5-17 0l-126 117c-12 11-27 18-45 18h-188c-5 0-8-2-10-4l-159-152c-22-24-24-62-3-84 10-12 26-19 43-19 17 0 33 7 43 19l112 119h40l-262-293h-162c-40 0-71-29-73-66-2-19 5-38 19-51 14-13 31-21 50-21h242c5 0 8 2 12 5l124 133 103-109-31-200c-8-34 9-67 38-81 11-5 19-7 30-7 10 0 20 2 31 7 17 9 31 26 36 47l53 288c0 5-1 12-5 15l-143 143 114 114 79-79c23-23 61-23 83 0l148 148c23 23 23 60 0 83z m-24-59l-148-148c-11-9-26-9-35 0l-91 91c-7 7-17 7-24 0l-138-138c-4-3-5-7-5-12s1-8 7-14l148-148-52-278c-3-8-10-17-19-22-8-3-19-5-29 0-16 7-23 24-19 43l33 211c0 5-2 10-6 13l-122 128c-3 3-7 5-12 5-5 0-10-2-12-5l-131-140h-235c-10 0-19 4-26 11-5 7-8 15-8 26 0 19 17 32 38 32h169c5 0 8 2 12 2l293 328c5 5 5 12 3 19-1 7-8 10-15 10h-86c-4 0-9-2-12-5l-118-124c-3-5-10-9-17-9-7 0-14 4-19 9-9 10-9 26 2 36l153 146h183c7 0 16-3 21-8l126-117c19-18 48-16 65 1l90 92c9 8 26 8 34 0l2-2c9-9 9-24 0-33z m-165 52c56 0 103 47 103 103s-47 104-103 104-104-47-104-104 47-103 104-103z m0 172c37 0 69-31 69-69 0-38-32-69-69-69s-69 31-69 69c0 38 31 69 69 69z" horiz-adv-x="1000" />

<glyph glyph-name="044-dumbbell-3" unicode="&#xe82b;" d="M834 516c-66 0-123-38-150-94-48 16-114 25-184 25-70 0-136-9-184-25-26 56-84 94-150 94-91 0-166-74-166-166s75-166 166-166c66 0 124 38 150 94 48-16 114-25 184-25 70 0 136 9 184 25 27-56 84-94 150-94 91 0 166 74 166 166s-75 166-166 166z m-668-290c-68 0-124 56-124 124s56 124 124 124 124-56 124-124-55-124-124-124z m334 69c-65 0-127 9-170 23 2 11 3 21 3 32 0 11-1 22-3 32 43 14 105 23 170 23 65 0 127-9 170-23-2-10-3-21-3-32 0-11 1-21 3-32-43-14-105-23-170-23z m334-69c-69 0-124 56-124 124s55 124 124 124 124-56 124-124-56-124-124-124z m0 231c-12 0-22-10-22-22s10-21 22-21c35 0 64-29 64-64 0-12 9-21 21-21s21 9 21 21c0 59-48 107-106 107z m-662 0c-12 0-21-10-21-22s9-21 21-21c35 0 64-29 64-64 0-12 9-21 21-21s21 9 21 21c0 59-47 107-106 107z" horiz-adv-x="1000" />

<glyph glyph-name="045-horizontal-bar" unicode="&#xe82c;" d="M986 652l-132 48 3 6c4 10-1 23-12 27-11 5-23 0-28-11l-3-8-18 7c-2 1-4 1-7 1h-578c-3 0-5 0-7-1l-18-7-3 8c-5 11-17 16-28 11-11-4-16-17-12-27l3-6-132-48c-11-4-17-17-13-28 4-11 17-16 28-12l133 49 4-9c3-9 11-14 19-14 3 0 6 1 8 2 11 5 16 17 12 28l-3 7 13 5h33v-126h-29c-12 0-21-10-21-22v-270c0-11 9-21 21-21h29v-103h-7c-12 0-21-10-21-21s9-21 21-21h7v-110c0-11 10-21 22-21 11 0 21 10 21 21v110h7c12 0 21 9 21 21s-9 21-21 21h-7v103h29c12 0 22 10 22 21v270c0 12-10 22-22 22h-29v126h52l11-76c1-11 10-19 21-19 1 0 2 0 3 0 11 2 19 13 18 24l-10 71h228l-10-71c-1-11 7-22 18-24 1 0 2 0 3 0 11 0 20 8 21 19l11 76h52v-126h-29c-12 0-22-10-22-22v-270c0-11 10-21 22-21h29v-103h-7c-12 0-21-10-21-21s9-21 21-21h7v-110c0-11 10-21 22-21s21 10 21 21v110h7c12 0 21 9 21 21s-9 21-21 21h-7v103h29c12 0 22 10 22 21v270c0 12-10 22-22 22h-29v126h33l13-5-3-7c-4-11 1-23 12-28 2-1 5-2 8-2 8 0 16 5 19 14l4 9 134-49c2-1 4-2 7-2 8 0 17 6 20 14 4 11-2 24-13 28z m-687-369h-59v228h59v-228z m461 0h-59v228h59v-228z" horiz-adv-x="1000" />

<glyph glyph-name="046-dumbbell-2" unicode="&#xe82d;" d="M978 605h-203c-12 0-22-10-22-22v-147h-506v147c0 12-10 22-22 22h-203c-12 0-22-10-22-22v-466c0-12 10-22 22-22h203c12 0 22 10 22 22v147h506v-147c0-12 10-22 22-22h203c12 0 22 10 22 22v466c0 12-10 22-22 22z m-775-44v-70h-159v70h159z m0-115v-192h-159v192h159z m-159-307v70h159v-70h-159z m203 170v82h506v-82h-506z m709 252v-70h-158v70h158z m0-115v-192h-158v192h158z m-158-307v70h158v-70h-158z" horiz-adv-x="1000" />

<glyph glyph-name="047-stretching-punching-ball" unicode="&#xe82e;" d="M755 350c0 94-51 176-127 220v13c0 39-32 71-71 71h-5v175c0 12-10 21-21 21h-62c-11 0-21-9-21-21v-175h-5c-39 0-71-32-71-71v-13c-76-44-127-126-127-220s51-176 127-220v-13c0-39 32-71 71-71h5v-175c0-12 10-21 21-21h62c11 0 21 9 21 21v175h5c39 0 71 32 71 71v13c76 44 127 126 127 220z m-265 458h20v-154h-20v154z m-47-196h114c14 0 25-9 28-22-27 10-55 15-85 15-30 0-58-5-85-15 3 13 15 22 28 22z m145-262c0-126-46-213-88-213s-88 87-88 213 46 213 88 213 88-88 88-213z m-301 0c0 87 53 162 128 195-4-6-7-13-11-21-22-47-34-109-34-174s12-127 34-174c4-8 7-15 11-21-75 33-128 108-128 195z m223-458h-20v154h20v-154z m47 196h-114c-13 0-25 9-28 22 27-10 55-15 85-15 30 0 58 5 85 15-3-13-15-22-28-22z m28 67c4 6 8 13 11 21 22 47 34 108 34 174s-12 127-34 174c-3 8-7 15-11 21 75-33 128-108 128-195s-53-162-128-195z" horiz-adv-x="1000" />

<glyph glyph-name="048-athletic-strap" unicode="&#xe82f;" d="M900 589h-800c-55 0-100-45-100-100v-11-346c0-12 9-21 21-21h82c36 0 69 17 90 45 13 18 33 29 55 29h124c14-15 33-24 53-24h27c20 0 39 9 52 24h248c22 0 43-11 55-29 21-28 55-45 90-45h82c12 0 21 9 21 21v336 10 11c0 55-45 100-100 100z m-800-41h800c29 0 53-21 58-49h-61c-35 0-69-17-90-46-12-17-33-28-55-28h-248c-13 15-32 24-52 24h-27c-20 0-39-9-53-24h-124c-22 0-42 11-55 28-21 29-54 46-90 46h-61c5 28 29 49 58 49z m421-164h96v-158h-96c0 2 0 156 0 158z m-362-203c-13-18-34-29-56-29h-61v306h61c22 0 43-11 56-29 21-28 54-45 89-45h232c0-9 0-25 0-25h-41c-11 0-21-9-21-21s10-20 21-20h41v-26h-41c-11 0-21-9-21-21s10-20 21-20h41c0-3 0-18 0-25h-232c-35 0-68-17-89-45z m499 45v158h81c43 0 79-36 79-79s-36-79-79-79h-81z m301-74h-62c-22 0-43 11-56 29-8 11-18 21-30 28 29 22 48 57 48 96 0 39-19 74-48 96 12 7 22 17 30 28 0 0 0 0 0 0 13 18 34 29 56 29h62v-306z" horiz-adv-x="1000" />

<glyph glyph-name="049-standing-punching-ball" unicode="&#xe830;" d="M707-114c-48 53-115 85-185 91v508c90 11 161 88 161 182 0 101-82 183-183 183s-183-82-183-183c0-94 71-171 161-182v-508c-70-6-137-38-185-91-5-6-7-15-3-23s11-13 20-13h381c8 0 16 5 19 13 4 8 2 17-3 23z m-167 870c9-26 13-56 13-89 0-85-31-140-53-140-22 0-53 55-53 140 0 33 4 63 13 89 13-2 26-3 40-3 14 0 27 1 40 3z m100-89c0-49-26-92-65-117 14 31 22 72 22 117 0 35-5 68-14 97 4 1 9 3 13 4 27-25 44-61 44-101z m-97 133c-14-2-28-3-43-3-15 0-29 1-43 3 13 4 28 7 43 7 15 0 30-3 43-7z m-183-133c0 40 17 76 44 101 4-1 9-3 13-4-9-29-14-62-14-97 0-45 8-86 22-117-39 25-65 68-65 117z m7-774c39 27 85 41 133 41s94-14 133-41h-266z" horiz-adv-x="1000" />

<glyph glyph-name="050-stairs" unicode="&#xe831;" d="M869 682l-79 99v47c0 12-10 22-22 22s-21-10-21-22v-39h-494v20c0 12-9 21-21 21s-22-9-22-21v-27l-79-100c-6-7-7-16-3-23 4-8 11-12 20-12h62v-756c0-12 10-21 22-21s21 9 21 21v61h494v-80c0-12 9-22 21-22s22 10 22 22v775h62c9 0 16 4 20 12s3 16-3 23z m-122 63v-55h-494v55h494z m-554-55l17 22v-22h-17z m60-341h494v-155h-494v155z m0 43v155h494v-155h-494z m0-396v154h494v-154h-494z m494 595h-494v56h494v-56z m43 99v22l17-22h-17z" horiz-adv-x="1000" />

<glyph glyph-name="051-skipping-rope" unicode="&#xe832;" d="M978 675h-12c-6 47-47 84-96 84-54 0-97-44-97-97v-403c0-150-123-273-273-273s-273 123-273 273v403c0 53-43 97-97 97-49 0-90-37-96-84h-11c-13 0-23-10-23-22s10-23 23-23h10v-109c0-12 10-22 22-22s23 10 23 22v109h10c13 0 23 10 23 23s-10 22-23 22h-8c6 22 26 39 50 39 29 0 52-24 52-52v-403c0-175 143-318 318-318s318 143 318 318v403c0 28 23 52 52 52 24 0 45-17 51-39h-9c-12 0-23-10-23-22s11-23 23-23h10v-109c0-12 10-22 23-22s22 10 22 22v109h11c12 0 22 10 22 23s-10 22-22 22z" horiz-adv-x="1000" />

<glyph glyph-name="052-punching-bag-1" unicode="&#xe833;" d="M755 339c-58 83-100 177-124 279-2 10-6 30-6 31-7 33-36 57-70 57h-33v13h9c27 0 49 23 49 50v1c0 22-9 43-25 58-16 15-37 23-59 22-43-2-76-38-76-81 0-27 22-50 49-50h9v-13h-32c-35 0-64-24-71-58 0-1-3-17-5-24-23-101-66-198-127-288-36-53-55-115-54-179 2-168 135-302 303-307 2 0 5 0 8 0 82 0 158 31 217 88 61 59 94 138 94 223 0 64-19 126-56 178z m-291 430c0 19 15 35 34 36 10 1 19-3 27-9 7-7 11-16 11-26v-1c0-3-2-5-5-5h-10c-3 8-11 14-21 14s-17-6-21-14h-10c-2 0-5 2-5 5z m66-860c-11-10-21-15-31-14-22 0-45 27-64 71-21 51-33 119-33 192-1 57 6 112 20 159 30 108 50 223 59 345h38c9-125 29-243 59-342 13-46 21-102 21-159 0-128-35-219-69-252z m-296 249c-1 55 15 108 46 153 65 94 110 196 134 303 2 8 5 25 5 26 2 9 8 17 17 20-9-117-28-228-57-330-15-51-22-111-22-173 0-78 13-152 37-208 6-15 13-29 21-40-105 35-180 133-181 249z m452-188c-29-28-63-49-100-61 35 57 57 150 57 252 0 62-8 121-22 172-28 95-48 207-57 327 9-3 15-11 17-20l0 0c0-2 5-22 7-32 25-108 69-207 130-294 32-45 48-98 48-153 0-72-28-140-80-191z" horiz-adv-x="1000" />

<glyph glyph-name="053-iron-shoots" unicode="&#xe834;" d="M806 518c-31 73-83 135-148 180-70 47-152 73-237 73-232 0-421-189-421-421s189-421 421-421c51 0 101 9 148 27 39-17 81-27 126-27 168 0 305 137 305 305 0 129-80 240-194 284z m-385-545c-208 0-377 169-377 377s169 377 377 377c76 0 149-23 212-65 49-34 88-77 117-128-18 4-36 5-55 5-7 0-15 0-22 0-60 79-153 126-252 126-174 0-315-141-315-315s141-315 315-315c14 0 27 1 41 3 17-20 36-37 57-52-32-9-65-13-98-13z m-16 356c-7 4-11 12-11 21 0 15 12 27 27 27 1 0 3 0 4-1-8-15-15-31-20-47z m44 85c-9 4-18 6-28 6-39 0-71-31-71-70 0-29 19-55 44-65-2-16-4-33-4-51 0-56 16-109 43-155-4 0-8 0-12 0-150 0-272 121-272 271 0 150 122 271 272 271 77 0 151-33 202-90-71-18-132-60-174-117z m246-441c-144 0-261 117-261 261s117 262 261 262 261-117 261-262-117-261-261-261z m0 475c-118 0-213-96-213-214s95-213 213-213 214 96 214 213-96 214-214 214z m0-384c-94 0-170 77-170 170s76 170 170 170 170-76 170-170-76-170-170-170z m0 240c-38 0-69-31-69-70s31-69 69-69 69 31 69 69-31 70-69 70z m0-95c-14 0-26 11-26 25s12 26 26 26 26-11 26-26-12-25-26-25z" horiz-adv-x="1000" />

<glyph glyph-name="054-trainer-rod" unicode="&#xe835;" d="M240 553c0 35-29 64-64 64-35 0-64-29-64-64s29-64 64-64c35 0 64 29 64 64z m-84 0c0 11 9 20 20 20s20-9 20-20-9-20-20-20-20 9-20 20z m822-323h-780v12h447c12 0 22 9 22 22s-10 22-22 22h-447v92c87 11 154 85 154 175 0 97-79 176-176 176s-176-79-176-176c0-90 67-164 154-175v-92h-110c-12 0-22-10-22-22s10-22 22-22h110v-12h-110c-12 0-22-10-22-22s10-22 22-22h110v-171h-39c-12 0-22-10-22-22s10-22 22-22h122c12 0 22 10 22 22s-10 22-22 22h-39v171h639v-171h-39c-12 0-22-10-22-22s10-22 22-22h122c12 0 22 10 22 22s-10 22-22 22h-39v171h97c12 0 22 9 22 22s-10 22-22 22z m-934 323c0 73 59 132 132 132 73 0 132-59 132-132 0-73-59-132-132-132-73 0-132 59-132 132z m670-311h264c12 0 22 9 22 22s-10 22-22 22h-264c-12 0-22-10-22-22s10-22 22-22z" horiz-adv-x="1000" />

<glyph glyph-name="055-press-simulator" unicode="&#xe836;" d="M993 368c-17 36-59 51-95 34-27-12-42-39-41-67l-13-3-35 164c10 8 18 19 22 31 7 18 6 37-3 55-16 35-59 51-95 34-29-14-45-45-40-76l-570-341c-8 8-17 14-27 17-18 7-38 6-55-2-36-17-51-60-34-96 8-17 23-30 41-36 7-3 16-5 24-5 10 0 20 3 30 7 30 14 45 46 40 77l570 340c8-8 17-14 28-17 7-3 16-5 24-5 1 0 3 1 5 1l58-273c-12-8-21-20-26-34-6-18-5-37 3-55 8-17 23-30 41-36 7-3 16-5 24-5 10 0 21 3 30 7 36 17 51 60 34 96-12 26-38 41-65 41l-15 69 18 4c14-18 35-28 58-28 10 0 20 2 30 7 36 17 51 59 34 95z m-909-245c-14-6-31 0-38 14-7 14-1 31 13 38 4 2 8 3 13 3 3 0 6-1 9-2 7-3 13-8 16-15 7-14 1-31-13-38z m670 401c-7 3-13 8-16 15-3 7-4 15-1 22s8 13 14 16c4 2 9 3 13 3 10 0 21-6 25-17 4-7 4-14 2-22s-8-12-15-16c-7-3-15-3-22-1z m140-363c7-14 1-31-13-38-14-6-31 0-38 14-3 7-4 14-1 22 2 7 8 13 14 16 4 2 9 3 13 3 10 0 21-6 25-17z m47 151c-15-7-32-1-38 13-7 15-1 32 13 38 4 2 8 3 12 3 11 0 21-6 26-16 7-15 1-32-13-38z m-791-75c4 0 8 1 11 3l496 297c10 6 14 19 8 29-6 11-20 14-30 8l-496-297c-10-6-13-19-7-29 4-7 11-11 18-11z" horiz-adv-x="1000" />

<glyph glyph-name="056-music-player" unicode="&#xe837;" d="M98 209h228c12 0 23 10 23 23v160c0 13-11 23-23 23h-228c-13 0-23-10-23-23v-160c0-13 10-23 23-23z m22 160h183v-114h-183v114z m92-186c-63 0-115-51-115-114s52-115 115-115c63 0 114 51 114 115s-51 114-114 114z m0-184c-38 0-69 31-69 70s31 69 69 69 69-31 69-69-31-70-69-70z m756 687c-9 0-17-4-22-9-76-4-136-66-136-142v-216c-42 10-73 48-73 93v249c0 52 41 94 92 96 5-4 13-7 21-7 18 0 32 14 32 32s-14 32-32 32c-10 0-19-4-25-11-74-5-134-66-134-142v-249c0-70 52-129 119-140v-181c0-54-44-99-98-99s-98 45-98 99v429c0 147-119 266-266 266-147 0-266-119-266-266v-30h-16c-36 0-66-30-66-67v-471c0-37 30-66 66-66h291c37 0 66 29 66 66v471c0 37-29 67-66 67h-230v30c0 121 99 221 221 221 122 0 221-100 221-221v-429c0-79 64-144 143-144s144 65 144 144v195 7 242c0 50 39 92 88 96 6-6 14-10 24-10 18 0 32 14 32 32s-14 33-32 33z m-590-263v-471c0-12-9-21-21-21h-291c-11 0-21 9-21 21v471c0 12 10 21 21 21h291c12 0 21-9 21-21z" horiz-adv-x="1000" />

<glyph glyph-name="057-gymnastic-ball" unicode="&#xe838;" d="M854 704c-95 94-220 146-354 146-134 0-259-52-354-146-94-95-146-220-146-354s52-259 146-354c95-94 220-146 354-146 134 0 259 52 354 146 94 95 146 220 146 354s-52 259-146 354z m74-509c-123-37-275-58-428-58-153 0-304 21-428 58-13 35-21 73-25 112 14-5 29-10 43-15 116-37 262-57 410-57s294 20 410 57c14 5 29 10 43 15-4-39-12-77-25-112z m-795 233c103-32 233-50 367-50 134 0 265 18 367 50 26 9 52 18 75 29 8-33 13-66 13-101-19-8-39-15-59-21-111-35-252-55-396-55s-285 20-396 55c-20 6-40 13-59 21 1 35 5 68 13 101 23-11 49-20 75-29z m-62 72c11 32 25 61 42 89 19-9 41-17 63-24 89-28 204-43 324-43 120 0 235 15 324 43 23 7 44 15 63 24 17-28 31-57 42-89-23-10-49-20-76-29-98-30-223-48-353-48-130 0-255 18-353 48-27 9-53 19-76 29z m669 236c-67-17-152-26-240-26-88 0-173 9-240 26 70 44 152 69 240 69 88 0 170-25 240-69z m-526-33c75-24 178-38 286-38 108 0 211 14 287 38 27-22 52-48 74-76-16-7-33-13-51-19-84-27-194-41-310-41-115 0-226 14-310 41-18 6-35 12-51 19 22 28 47 54 75 76z m44-738c79-11 161-16 242-16 81 0 163 5 242 16-70-44-153-70-242-70-89 0-172 26-242 70z m556 57c-99-18-208-28-314-28-106 0-215 10-314 28-37 34-67 75-90 120 120-32 261-50 404-50 143 0 284 18 404 50-23-45-53-86-90-120z" horiz-adv-x="1000" />

<glyph glyph-name="058-gymnast-rings" unicode="&#xe839;" d="M285 272v556c0 12-10 22-23 22s-22-10-22-22v-556c-107-11-190-101-190-210 0-117 95-212 212-212s212 95 212 212c0 109-83 199-189 210z m-23-377c-92 0-167 75-167 167 0 92 75 167 167 167 92 0 167-75 167-167 0-92-75-167-167-167z m498 377v556c0 12-10 22-22 22s-22-10-22-22v-556c-107-11-190-101-190-210 0-117 95-212 212-212 117 0 212 95 212 212 0 109-83 199-190 210z m-22-377c-92 0-167 75-167 167 0 92 75 167 167 167s167-75 167-167c0-92-75-167-167-167z m-476 313c-81 0-147-65-147-146s66-147 147-147c81 0 147 66 147 147s-66 146-147 146z m0-248c-56 0-102 46-102 102s46 102 102 102c56 0 102-46 102-102s-46-102-102-102z m476 248c-81 0-147-65-147-146s66-147 147-147 147 66 147 147-66 146-147 146z m0-248c-56 0-102 46-102 102s46 102 102 102 102-46 102-102-46-102-102-102z" horiz-adv-x="1000" />

<glyph glyph-name="059-phytonutrients" unicode="&#xe83a;" d="M852 593c0 50-41 91-92 91h-20v91c0 42-33 75-75 75h-330c-42 0-75-33-75-75v-91h-20c-51 0-92-41-92-91v-652c0-50 41-91 92-91h520c51 0 92 41 92 91v652z m-659-132h614v-387h-614v387z m112 314c0 17 13 30 30 30h330c17 0 30-13 30-30v-91h-390v91z m-65-136h520c26 0 47-20 47-46v-87h-614v87c0 26 21 46 47 46z m520-744h-520c-26 0-47 21-47 46v88h614v-88c0-25-21-46-47-46z m-5 630c13 0 23 10 23 22v44c0 13-10 23-23 23s-22-10-22-23v-44c0-12 10-22 22-22z m0-518c-12 0-22-10-22-23v-41c0-12 10-22 22-22s23 10 23 22v41c0 13-10 23-23 23z m-163 279c-4 8-12 14-21 14h-81l83 83c9 9 9 23 0 32-8 9-23 9-31 0l-122-122c-6-6-8-16-5-24 4-9 12-14 21-14h81l-104-103c-9-9-9-23 0-32 5-5 10-7 16-7s12 2 16 7l142 141c6 7 8 17 5 25z" horiz-adv-x="1000" />

<glyph glyph-name="060-punching-bag" unicode="&#xe83b;" d="M629 668h-18l-92 171c-4 7-11 11-19 11-8 0-15-4-19-11l-92-171h-18c-41 0-75-34-75-75v-668c0-41 34-75 75-75h258c41 0 75 34 75 75v668c0 41-34 75-75 75z m-108 77l42-77h-42v77z m-42 0v-77h-41l41 77z m-113-120l-8-16c-6-10-2-23 8-29 11-5 24-1 29 9l20 36h170l20-36c4-7 11-11 19-11 3 0 6 1 10 2 10 6 14 19 8 29l-8 16c15-2 27-16 27-32v-19h-322v19c0 16 12 30 27 32z m296-93v-557h-323v557h323z m-33-640h-258c-18 0-32 15-32 33v8h323v-8c0-18-15-33-33-33z" horiz-adv-x="1000" />

<glyph glyph-name="061-bosu-ball" unicode="&#xe83c;" d="M978 95h-20c-28 85-101 159-204 207-1 4-2 8-4 11-4 7-8 12-14 17l-87 75-81 91 32 27c9 8 10 22 2 31s-21 10-30 2l-18-15c2 7 5 13 10 18l97 121c8 9 6 23-3 30-9 8-23 6-30-3l-98-121c-16-20-23-46-20-71l-29-6c-26-5-53 10-62 35 24 20 44 45 58 73l47 93c6 11 1 24-9 29-11 6-24 1-29-9l-48-94c-9-17-21-34-35-48-2 2-5 4-8 5-7 2-15 0-20-4-3-3-78-65-99-132-11-34 3-71 34-89 8-6 18-11 29-15l27-12c-69-14-133-40-187-76-69-46-116-105-137-170h-20c-12 0-22-10-22-22v-93c0-12 10-21 22-21h956c12 0 22 9 22 21v93c0 12-10 22-22 22z m-646 310c-14 8-20 24-15 39 11 33 39 67 61 88 13-40 51-67 93-67 6 0 12 1 18 2l40 8 4-5-27-9c-12-4-18-16-14-27 3-9 12-15 21-15 2 0 4 0 6 1l45 15 8-8-31-10c-12-4-18-16-14-28 3-9 11-14 21-14 2 0 4 0 6 1l49 16 105-95c2-1 3-3 4-5 1-1 5-12-4-15-32-7-65-5-95 7l-159 67-98 42c-9 3-17 7-24 12z m-129-176c67 44 149 72 240 80l154-64c38-16 81-20 121-9 13 3 24 11 30 21 81-40 138-97 164-162h-824c20 50 59 97 115 134z m754-227h-914v49h914v-49z" horiz-adv-x="1000" />

<glyph glyph-name="062-sports-shirt" unicode="&#xe83d;" d="M790 517c-68 37-108 111-103 188l5 80c1 8-4 16-11 20l-78 42c-6 4-14 4-21 0-6-4-10-11-10-18v-43c0-39-32-72-72-72s-72 33-72 72v43c0 7-4 14-10 18-7 4-15 4-21 0l-78-42c-7-4-12-12-11-20l5-80c5-77-35-151-103-188-8-5-12-14-10-23 36-176 54-356 54-535v-88c0-12 10-21 21-21h450c11 0 21 9 21 21v88c0 179 18 359 54 535 2 9-2 18-10 23z m-290 155c27 0 52 10 72 26v-51c0-40-32-72-72-72s-72 32-72 72v51c20-16 45-26 72-26z m203-713v-67h-406v67c0 177-18 355-53 529 74 47 117 132 111 220l-4 66 35 19v-146c0-63 51-115 114-115s114 52 114 115v146l35-19-4-66c-6-88 37-173 111-220-35-174-53-352-53-529z" horiz-adv-x="1000" />

<glyph glyph-name="063-list" unicode="&#xe83e;" d="M759 701h-86v56c0 11-9 21-21 21h-62c-9 41-46 72-90 72s-81-31-90-72h-62c-11 0-21-10-21-21v-56h-86c-35 0-64-28-64-63v-725c0-35 29-63 64-63h518c35 0 64 28 64 63v725c0 35-29 63-64 63z m-390 34h61c11 0 21 10 21 22v1c0 27 22 50 49 50 27 0 49-23 49-50v-1c0-12 10-22 22-22h60v-125h-262v125z m283-167c11 0 20 9 21 20h36v-624h-418v624h36c1-11 10-20 21-20h304z m128-655c0-11-9-21-21-21h-518c-12 0-21 10-21 21v725c0 12 9 21 21 21h86v-29h-57c-12 0-22-9-22-21v-667c0-11 10-21 22-21h460c12 0 22 10 22 21v667c0 12-10 21-22 21h-57v29h86c12 0 21-9 21-21v-725z m-454 519c0-12 9-21 21-21h159c12 0 22 9 22 21s-10 21-22 21h-159c-12 0-21-9-21-21z m180-131h-159c-12 0-21-9-21-21s9-21 21-21h159c12 0 22 9 22 21s-10 21-22 21z m0-152h-159c-12 0-21-9-21-21s9-21 21-21h159c12 0 22 9 22 21s-10 21-22 21z m63 552h-138c-12 0-21-9-21-21s9-21 21-21h138c12 0 21 9 21 21s-9 21-21 21z m21-284c4-4 9-6 15-6 5 0 11 2 15 6l60 60c8 8 8 22 0 30-8 8-22 8-30 0l-45-45-15 15c-9 8-22 8-30 0s-9-22 0-30l30-30z m0-152c4-4 9-6 15-6 5 0 11 2 15 6l60 60c8 8 8 22 0 30-8 8-22 8-30 0l-45-45-15 15c-9 8-22 8-30 0s-9-22 0-30l30-30z" horiz-adv-x="1000" />

<glyph glyph-name="064-step-platform" unicode="&#xe83f;" d="M999 217l-66 276c-2 9-11 16-21 16h-824c-10 0-19-7-21-16l-66-276c-2-6 0-13 4-18 4-5 10-8 17-8h128c10 0 19 7 21 16l21 87h616l21-87c2-9 11-16 21-16h128c7 0 13 3 17 8 5 5 6 12 4 18z m-104 249l12-47h-54c-10 0-18-6-21-14l-24-67h-616l-24 67c-3 8-11 14-20 14h-55l12 47h790z m-762-232h-84l34 142h49l21-59-20-83z m734 0l-20 83 21 59h49l34-142h-84z" horiz-adv-x="1000" />

<glyph glyph-name="065-sportswear" unicode="&#xe840;" d="M990 375l-79 392c-1 6-5 12-11 15l-116 65c-7 4-15 4-22 0-1 0-1-1-2-1l0 0c-76-54-166-82-260-82s-184 28-260 82l0 0c-1 0-1 1-2 1-7 4-15 4-22 0l-116-65c-6-3-10-9-11-15l-79-392c-6-28-7-56-5-84l38-421c1-11 11-20 23-20h868c12 0 22 9 23 20l38 421c2 28 1 56-5 84z m-379 53c4 104 56 199 140 260v-36c0-98-57-183-140-224z m140 359v-46c-114-68-185-192-185-325 0-2 0-4 0-6-21-5-43-9-66-9-23 0-45 4-66 9 0 2 0 4 0 6 0 133-71 257-185 325v46c76-45 162-68 251-68 89 0 175 23 251 68z m-502-99c84-61 136-156 140-260-83 41-140 126-140 224v36z m-163-793l-3 35h834l-3-35h-828z m864 400l-29-320h-842l-29 320c-2 24-1 48 4 71l77 382 73 41v-137c0-163 133-295 296-295 163 0 296 132 296 295v137l73-41 77-382c5-23 6-47 4-71z" horiz-adv-x="1000" />

<glyph glyph-name="066-barbell-1" unicode="&#xe841;" d="M152 738c-11 0-21-10-21-21v-233c0-11 10-21 21-21s22 10 22 21v233c0 11-10 21-22 21z m-53-37c-12 0-21-9-21-21v-58h-57c-11 0-21-10-21-21s10-22 21-22h57v-58c0-12 9-21 21-21s21 9 21 21v159c0 12-9 21-21 21z m749 37c-12 0-22-10-22-21v-233c0-11 10-21 22-21s21 10 21 21v233c0 11-10 21-21 21z m-54 0c-11 0-21-10-21-21v-95h-26v36c0 12-9 21-21 21s-21-9-21-21v-36h-410v36c0 12-9 21-21 21s-21-9-21-21v-36h-26v95c0 11-9 21-21 21s-21-10-21-21v-233c0-11 9-21 21-21s21 10 21 21v95h26v-574h-25c-12 0-21-10-21-22s9-21 21-21h92c12 0 22 10 22 21s-10 22-22 22h-25v574h410v-574h-25c-12 0-21-10-21-22s9-21 21-21h92c12 0 21 10 21 21s-9 22-21 22h-25v574h26v-95c0-11 10-21 21-21s21 10 21 21v233c0 11-9 21-21 21z m185-116h-57v58c0 12-9 21-21 21s-21-9-21-21v-159c0-12 9-21 21-21s21 9 21 21v58h57c12 0 21 10 21 22s-9 21-21 21z" horiz-adv-x="1000" />

<glyph glyph-name="067-gymnast-mat" unicode="&#xe842;" d="M1000 627c0 109-89 198-198 198s-198-89-198-198v-128h-582c-12 0-22-10-22-22v-579c0-13 10-23 22-23h780c52 0 100 18 136 50 36 31 59 76 62 125 0 1 0 577 0 577z m-198 153c85 0 153-69 153-153v-390c-28 34-67 58-110 68-14 3-28 4-43 4-50 0-98-18-134-52-7-6-13-13-19-20v390c0 84 69 153 153 153z m16-516v-229h-83c-45 0-82 35-86 80 0 2 0 7 1 9 3 38 20 74 48 100 28 26 65 41 104 41 5 0 11 0 16-1z m137-208c-4-79-68-136-153-136h-757v534h559c0 0 0-340 0-342 5-68 63-122 131-122h105c13 0 23 10 23 23v239c22-9 42-25 58-44 22-27 34-61 34-96v-54c0-1 0-1 0-2z" horiz-adv-x="1000" />

<glyph glyph-name="068-exercise-bike" unicode="&#xe843;" d="M919 801c-7 12-21 16-33 9l-152-87c-11-6-15-21-8-32 4-8 12-12 20-12 4 0 7 1 11 2l-24-75-47 29 26 188c1 13-8 25-21 27-13 2-25-8-26-20l-27-204c-2-9 3-18 10-23l70-44-158-505c-27 36-58 68-94 95-53 39-113 67-176 81l-69 304 80-6c0 0 1 0 2 0 12 0 22 10 23 22 1 13-9 25-22 26l-121 8c-25 2-48 16-61 38-6 11-20 15-32 9-11-6-15-21-9-32 19-34 53-56 91-61l68-300c-16 2-33 2-49 2-55 0-99-44-99-99v-237c0-13 10-23 23-24v-6c0-13 10-24 23-24s24 11 24 24v6h378v-6c0-13 11-24 24-24s24 11 24 24v6h20c7 0 14 4 18 10s6 13 4 20c-9 32-22 63-37 92l224 714 93 53c11 6 15 21 9 32z m-780-660c0 29 23 52 52 52 90 0 175-28 246-82 63-47 110-110 138-184h-436v214z m202-113h-13l35 70c5 12 0 26-11 32-12 6-26 1-32-11l-44-91h-22c-13 0-24-10-24-23s11-24 24-24h87c13 0 24 11 24 24s-11 23-24 23z" horiz-adv-x="1000" />

<glyph glyph-name="069-barbell" unicode="&#xe844;" d="M979 374h-16v60c0 21-17 39-39 39h-37c-5 15-19 25-36 25h-38c-21 0-39-17-39-39v-85h-548v85c0 22-18 39-39 39h-38c-16 0-31-10-36-25h-37c-21 0-39-18-39-39v-60h-16c-12 0-21-9-21-21s9-21 21-21h16v-66c0-21 18-39 39-39h37c5-15 20-25 36-25h38c21 0 39 17 39 39v91h548v-91c0-22 18-39 39-39h38c17 0 31 10 36 25h37c22 0 39 18 39 39v66h16c12 0 21 9 21 21s-9 21-21 21z m-900 57h31v-162h-31v162z m73-187v22 168 22h32v-212h-32z m696 0h-31v212h31v-22-168-22z m42 25v162h31v-162h-31z" horiz-adv-x="1000" />

<glyph glyph-name="070-stopwatch" unicode="&#xe845;" d="M572 672v10c43 4 77 40 77 84 0 23-9 44-25 59-15 16-36 25-59 25h-130c-46 0-84-38-84-84 0-22 9-43 25-59 14-14 32-23 52-25v-10c-40-7-79-20-114-38l-29 39c-21 27-60 33-87 12-14-10-22-24-25-41-2-16 2-33 12-46l28-37c-78-75-127-180-127-297 0-228 186-414 414-414 228 0 414 186 414 414 0 204-148 374-342 408z m-165 66c-7 8-11 18-11 28 0 22 17 40 39 40h130c11 0 21-5 28-12 7-7 12-17 12-28 0-19-15-36-33-39v24c0 12-10 22-22 22h-99c-13 0-23-10-23-22v-24c-8 2-15 5-21 11z m66-9h54v-52c-9 1-18 1-27 1-9 0-18 0-27-1v52z m-252-104c-3 3-4 8-4 13 1 4 4 9 7 12 8 5 19 4 25-4l26-35c-10-6-19-13-29-20l-25 34z m279-731c-204 0-369 166-369 370s165 369 369 369c204 0 370-165 370-369s-166-370-370-370z m0 695c-179 0-325-146-325-325s146-325 325-325c179 0 325 146 325 325s-146 325-325 325z m0-606c-155 0-281 126-281 281 0 155 126 281 281 281 155 0 281-126 281-281 0-155-126-281-281-281z m22 360v140c0 12-10 22-22 22-12 0-22-10-22-22v-140c-34-10-60-42-60-79 0-45 37-82 82-82 45 0 82 37 82 82 0 37-25 69-60 79z m-22-116c-20 0-37 17-37 37s17 37 37 37 37-17 37-37-16-37-37-37z" horiz-adv-x="1000" />

<glyph glyph-name="071-shorts" unicode="&#xe846;" d="M999 186l-130 476c-2 6-6 11-11 14-5 2-11 3-16 2-224-62-460-62-684 0-5 1-11 0-16-2-5-3-9-8-11-14l-130-476c-3-10 1-20 9-25 131-82 281-130 436-139 10-1 19 6 22 16l32 117 32-117c3-10 11-16 21-16 0 0 1 0 1 0 155 9 305 57 436 139 8 5 12 15 9 25z m-831 444c218-56 446-56 664 0l12-44c-225-58-463-58-688 0l12 44z m-24-86c6-1 12-3 18-4l-98-360c-6 3-11 6-17 10l97 354z m377-301c-3 9-11 16-21 16s-18-7-21-16l-48-177c-115 9-226 41-328 93l102 371c97-21 196-31 295-31 99 0 198 10 296 31l101-371c-102-52-213-84-328-93l-48 177z m415-63l-98 360c6 1 12 3 18 4l97-354c-5-4-11-7-17-10z" horiz-adv-x="1000" />

<glyph glyph-name="072-dumbbell-1" unicode="&#xe847;" d="M915 549c-18 0-34-5-47-14-11 34-43 58-81 58-47 0-85-38-85-85v-86h-404v86c0 47-38 85-85 85-38 0-70-24-81-58-13 9-29 14-47 14-47 0-85-38-85-85v-228c0-47 38-85 85-85 18 0 34 5 47 14 11-34 43-58 81-58 47 0 85 38 85 85v86h404v-86c0-47 38-85 85-85 38 0 70 24 81 58 13-9 29-14 47-14 47 0 85 38 85 85v228c0 47-38 85-85 85z m-830-355c-23 0-42 19-42 42v228c0 23 19 42 42 42s43-19 43-42v-228c0-23-19-42-43-42z m171-2c0-23-19-42-43-42s-42 19-42 42v44 228 44c0 24 19 43 42 43s43-19 43-43v-316z m42 129v58h404v-58h-404z m532-129c0-23-20-42-43-42s-42 19-42 42v316c0 24 19 43 42 43s43-19 43-43v-316z m127 44c0-23-19-42-42-42s-43 19-43 42v228c0 23 19 42 43 42s42-19 42-42v-228z" horiz-adv-x="1000" />

<glyph glyph-name="073-heart" unicode="&#xe848;" d="M913 718c-56 57-131 88-211 88-76 0-147-28-202-79-117 108-299 105-413-9-116-116-116-305 0-421l396-396c4-4 10-7 17-7s13 3 18 7l395 396c116 116 116 305 0 421z m-35-386l-378-378-378 378c-47 47-73 109-73 176 1 66 26 128 73 175 49 49 112 73 176 73 60 0 120-21 167-64l-72-72c-10-9-10-25 0-35 5-5 11-7 17-7s13 2 18 7l98 98c47 47 110 73 176 73 66 0 129-26 176-73 97-96 97-254 0-351z m-103 384c-24 9-49 13-75 13-14 0-25-11-25-25s11-24 25-24c20 0 39-4 58-11 3-1 6-1 9-1 10 0 19 6 23 16 5 13-2 27-15 32z m91-64c-8 10-24 12-34 3-11-9-12-25-3-35 25-30 40-69 40-109 0-14 11-25 24-25s25 11 25 25c0 52-18 102-52 141z m-407-543c-9 10-25 10-35 0-9-10-9-25 0-35l35-35c5-5 11-7 18-7s12 2 17 7c10 10 10 26 0 35l-35 35z m-187 188c-10 10-26 10-35 0-10-10-10-25 0-35l130-131c5-5 12-7 18-7s13 2 17 7c10 10 10 25 0 35l-130 131z" horiz-adv-x="1000" />

<glyph glyph-name="074-fitness-bracelet" unicode="&#xe849;" d="M709 631v198c0 12-9 21-21 21h-376c-12 0-21-9-21-21v-198c-41-6-73-41-73-84v-394c0-43 32-78 73-84v-198c0-12 9-21 21-21h376c12 0 21 9 21 21v198c41 6 73 41 73 84v394c0 43-32 78-73 84z m-42 177v-176h-334v176h334z m-334-916v176h334v-176h-334z m407 261c0-24-19-43-43-43h-394c-24 0-43 19-43 43v394c0 24 19 43 43 43h394c24 0 43-19 43-43v-394z m-52 406h-376c-12 0-21-9-21-21v-376c0-12 9-21 21-21h376c12 0 21 9 21 21v376c0 12-9 21-21 21z m-21-376h-334v334h334v-334z m-302 146h49c9 0 16 5 20 13l17 42 25-159c1-10 9-17 19-18 1 0 1 0 2 0 9 0 17 6 20 15l42 137 8-17c3-8 10-13 19-13h46c12 0 21 9 21 21s-9 21-21 21h-32l-24 57c-4 8-12 13-21 12-9 0-16-6-19-14l-32-105-23 145c-1 9-9 16-18 17-9 1-18-4-22-13l-41-99h-35c-12 0-21-9-21-21s9-21 21-21z" horiz-adv-x="1000" />

<glyph glyph-name="075-brawn" unicode="&#xe84a;" d="M992 448l-137 204c-14 20-40 30-64 22l-47-14c-69 55-155 84-244 84-88 0-175-29-244-84l-47 14c-24 8-50-2-64-22l-137-204c-11-17-11-39 1-55 14-20 45-57 89-85 4-2 7-4 11-6 11-93 55-179 124-243 73-67 168-103 267-103 99 0 194 36 267 103 69 64 113 150 125 243 3 2 6 4 10 6 44 28 75 65 89 85 12 16 12 38 1 55z m-295 195c-4-4-6-8-6-14l-3-64c0-9 5-17 13-20l42-17c7-3 16-2 22 3l34 29c11-19 16-43 22-66 0-3 1-7 2-10-13 3-25 3-34 2-18-2-35-10-49-22-52 20-90 12-113 1-14-6-24-13-31-19l-26 15c18 24 28 58 28 95 0 35-9 65-28 85-17 19-42 30-70 30s-53-11-70-30c-18-20-28-50-28-85 0-37 11-71 28-95l-26-15c-7 6-17 13-30 19-24 11-62 19-113-1-15 12-32 20-50 22-9 1-21 1-34-2 1 3 2 7 2 10 6 23 11 47 22 66l34-29c6-5 15-6 22-3l42 17c8 3 13 11 13 20l-3 64c0 6-2 10-6 14 58 39 127 60 197 60 70 0 139-21 197-60z m-254-87c0 46 22 74 57 74s57-28 57-74c0-51-26-94-57-94s-57 43-57 94z m-290-273c19-5 38-8 57-8 14 0 28 2 42 5 12-32 38-97 65-138 14-21 23-44 27-69 3-15 5-30 7-43-33 15-63 35-89 60-57 52-94 119-109 193z m153 43l34-65c2-4 6-8 11-10 1 0 28-10 61-15 12-2 23-3 34-3 22 0 40 4 54 12 21-12 50-16 89-9 32 5 59 15 60 15 5 2 9 6 11 10l34 65c8-5 17-12 20-20-8-21-37-98-65-141-17-26-29-54-34-84-5-28-8-53-9-68-5-1-11-3-16-4l18 105c3 20-5 40-20 53l-45 36c-25 20-61 20-86 0l-45-36c-15-13-23-33-20-53l18-105c-5 1-11 3-16 4-1 15-4 40-9 68-5 30-17 58-34 84-28 43-57 120-65 141 3 8 12 15 20 20z m148-326l-21 121c0 5 1 10 5 14l45 36c10 8 24 8 34 0l45-36c4-4 6-9 5-14l-21-121c-15-2-30-3-46-3-16 0-31 1-46 3z m285 90c-27-25-57-45-89-60 1 13 3 28 6 43 4 25 13 48 27 69 27 41 53 106 65 138 14-3 29-5 43-5 19 0 37 3 56 8-15-74-52-141-108-193z m218 328c-27-38-100-121-205-97-7 21-25 35-39 42l11 21c6 10 2 23-8 28s-23 1-28-9l-61-115c-30-10-84-22-106-7v69c0 12-9 21-21 21s-21-9-21-21v-69c-22-15-76-3-106 7l-60 115c-6 10-18 14-28 9-11-5-15-18-9-28l11-21c-14-7-32-21-39-42-105-24-178 59-205 97-2 2-2 4 0 6l137 204c4 6 10 8 17 7l71-22 2-35-17-7-42 35c-8 7-20 7-28-1-28-29-36-67-44-102-4-19-8-37-15-51-5-8-2-19 5-25 8-6 19-6 26 0 44 35 75 11 86-1 6-6 16-8 24-5 34 16 64 18 90 7 18-7 28-19 29-21 6-8 18-11 27-5l51 29c12-6 24-10 38-10s27 4 38 10l51-29c9-6 21-3 27 6 0 0 38 50 119 13 8-3 18-1 24 5 11 12 42 36 86 1 8-6 18-6 26 0 7 6 10 17 5 25-6 14-11 32-15 51-8 35-16 73-44 102-7 8-20 8-28 1l-42-35-17 7 2 35 71 22c7 1 14-1 17-7l138-204c1-2 1-4-1-6z" horiz-adv-x="1000" />

<glyph glyph-name="076-shoe" unicode="&#xe84b;" d="M988 286l-15 26c-4 6-9 9-15 10l-182 29-345 184c-4 2-9 3-14 2l-35 52c-6 9-17 12-27 8-2-1-20-11-34-34-18-31-16-67-9-95-27-16-59-22-90-18-34 5-64 23-86 49l-42 52c-4 6-12 8-19 7-7-1-14-5-16-12l-26-61c-34-79-39-167-15-249l-17-75c-2-6 0-12 3-17 6-7 38-43 156-43h581c81 0 161 27 226 76 34 26 43 73 21 109z m-565 206l3-2-18-18c-8-9-7-22 1-30 4-4 9-6 15-6 5 0 11 3 15 7l25 27 22-12-16-18c-8-9-8-22 1-30 4-4 9-6 14-6 6 0 11 3 15 7l25 26 20-11-18-20c-8-8-8-22 0-30 5-3 10-5 15-5 5 0 11 2 15 6l27 29 26-14-18-19c-8-9-8-22 1-30 4-4 9-6 14-6 6 0 11 3 16 7l25 28 15-8-50-48-194 101c-5 3-11 3-17 2l-28-9-30 28 79 54z m280-149l45-25 2-41-44-12c-35-10-64-32-83-63l-2-5c-22 2-44 3-66 6l148 140z m14-118l59 16 168 37 8-13c8-13 8-28 1-41-92-20-187-30-282-28 12 13 28 24 46 29z m74 81l50-8-50-10 0 18z m-431 240l21-31-31-22c-3 26 3 43 10 53z m-56-128l50-47c6-6 14-8 21-5l32 10 173-91-79-75c-28 4-56 10-84 16l-180 136c-17 12-29 30-35 49 4-1 9-2 14-3 30-4 60-1 88 10z m-248-162c-10 39-13 79-9 118 41 4 77 26 99 60 3-2 6-3 9-5 4-40 24-77 56-101l119-89-274 17z m15 212l13 29 19-24c3-4 7-8 10-12-12-22-34-38-58-43 4 17 9 34 16 50z m89-324c-70 0-102 13-115 20l11 50 275-17c25-2 49-5 72-11 94-22 190-33 286-33 56 0 112 4 167 11-36-13-76-20-115-20h-581z" horiz-adv-x="1000" />

<glyph glyph-name="077-plastic-bottle" unicode="&#xe84c;" d="M660 652c45 0 82 37 82 82s-37 82-82 82h-92v12c0 12-10 22-22 22h-120c-12 0-22-10-22-22v-75h-41c-12 0-22-9-22-21v-91l-53-43c-19-15-30-37-30-61v-607c0-44 36-80 80-80h296c44 0 80 36 80 80v607c0 24-11 46-29 61l-54 43v11h29z m0 121c21 0 39-17 39-39s-18-39-39-39h-29v37c0 12-10 21-22 21h-41v20h92z m-213 34h78v-54h-78v54z m-62-97h202v-58h-202v58z m286-173v-57h-209c-12 0-22-9-22-21s10-22 22-22h209v-67h-209c-12 0-22-10-22-22s10-21 22-21h209v-68h-209c-12 0-22-9-22-21s10-22 22-22h209v-67h-209c-12 0-22-10-22-22s10-21 22-21h209v-68h-209c-12 0-22-9-22-21s10-22 22-22h209v-65c0-20-16-37-37-37h-296c-20 0-37 17-37 37v65h61c11 0 21 10 21 22s-10 21-21 21h-61v68h61c11 0 21 9 21 21s-10 22-21 22h-61v67h61c11 0 21 10 21 22s-10 21-21 21h-61v68h61c11 0 21 9 21 21s-10 22-21 22h-61v67h61c11 0 21 10 21 22s-10 21-21 21h-61v57c0 11 5 21 14 28l56 44h231l56-44c8-7 13-17 13-28z" horiz-adv-x="1000" />

<glyph glyph-name="078-dressing-room" unicode="&#xe84d;" d="M957 372l-149 105c-85 59-183 93-286 97v52c0 16 12 28 27 28 52 0 95 42 95 94v8c0 52-43 94-95 94s-94-42-94-94v-15c0-12 10-22 22-22s22 10 22 22v15c0 28 23 50 50 50s51-22 51-50v-8c0-28-23-50-51-50-39 0-71-32-71-72v-52c-103-4-201-37-286-97l-149-105c-23-16-32-44-24-71 9-27 32-45 61-45h130v-384c0-12 10-22 22-22h429c12 0 22 10 22 22v177h120c12 0 21 9 21 21v186h96c29 0 52 18 61 45 8 27-1 55-24 71z m-318-96v-382h-386v382c0 27 23 49 50 49h350c-9-14-14-31-14-49z m142-184h-98v164h98v-164z m-92 208c9 15 25 25 43 25 18 0 34-10 42-25h-85z m250 14c-1-3-5-14-19-14h-99c-10 39-46 68-88 69 0 0-1 0-1 0 0 0 0 0-1 0h-428c-43 0-79-29-90-69h-133c-14 0-18 11-19 14-1 3-4 14 7 22l149 105c84 59 181 90 283 90 102 0 200-31 283-90l149-105c11-8 8-19 7-22z" horiz-adv-x="1000" />

<glyph glyph-name="079-no-fast-food" unicode="&#xe84e;" d="M854 704c-95 94-220 146-354 146-134 0-259-52-354-146-94-95-146-220-146-354s52-259 146-354c95-94 220-146 354-146 134 0 259 52 354 146s146 220 146 354-52 259-146 354z m102-354c0-118-45-225-118-306l-83 82c9 16 15 34 15 53v19c0 12-10 22-22 22h-3v54h3c12 0 22 9 22 21v34c0 48-39 86-86 86h-142l13 167c0 6-2 12-6 17-4 4-10 7-16 7h-69l5 69 94-15c12-2 23 6 25 18 2 12-6 23-18 25l-117 20c-6 1-12-1-17-5-5-4-8-9-8-15l-8-97h-144l-82 82c81 73 188 118 306 118 252 0 456-204 456-456z m-575-130c-12 0-22-10-22-22v-13h-33l-25 333 110-110c-30-13-52-43-52-79v-34c0-12 10-21 22-21h3v-54h-3z m128 342l-11-147h-32l-147 147h190z m152-342l-53 54h93v-54h-40z m-216 151h3l54-54h-99v12c0 23 19 42 42 42z m101-97l53-54h-171v54h118z m180 43h-162l-54 54h174c23 0 42-19 42-42v-12z m-83-141l49-49c-7-3-15-5-23-5h-209c-30 0-55 24-57 54h240z m62 0h21c-1-6-2-12-4-17l-17 17z m-661 174c0 118 45 226 119 307l90-91 31-404c1-12 10-20 22-20h60c15-38 52-64 94-64h209c20 0 39 6 55 17l83-82c-81-74-189-119-307-119-251 0-456 205-456 456z" horiz-adv-x="1000" />

<glyph glyph-name="080-weight" unicode="&#xe84f;" d="M317 513c4-2 7-3 11-3 4 0 8 1 11 3 49 27 105 42 161 42 57 0 112-15 161-42 7-4 15-4 22 0 7 4 11 11 11 19v89c0 76-62 137-137 137h-113c-76 0-138-61-138-137v-89c0-8 4-15 11-19z m33 108c0 52 42 94 94 94h113c51 0 93-42 93-94v-54c-47 20-98 31-150 31-52 0-103-11-150-31v54z m435-155v155c0 126-102 229-228 229h-113c-127 0-229-103-229-229v-155c-58-68-89-153-89-242 0-206 168-374 374-374s374 168 374 374c0 89-31 174-89 242z m-285-572c-182 0-330 148-330 330 0 81 29 159 83 219 3 4 5 9 5 15v163c0 102 83 185 186 185h113c102 0 185-83 185-185v-163c0-6 2-11 5-15 54-60 84-138 84-219 0-182-149-330-331-330z m76 622c-25 6-50 10-76 10-12 0-22-10-22-22s10-22 22-22c22 0 44-3 65-8 2-1 4-1 5-1 10 0 19 7 22 16 3 12-4 24-16 27z m83-36c-10 7-24 4-30-7-6-10-3-23 7-30 77-47 122-129 122-219 0-12 10-22 22-22s22 10 22 22c0 105-54 201-143 256z m-159-515c-30 0-59 5-86 15-12 4-24-2-28-13-4-11 2-24 13-28 32-11 66-17 101-17 12 0 22 10 22 22s-10 21-22 21z m-144 45c-72 48-114 128-114 214 0 12-10 22-22 22s-22-10-22-22c0-101 50-194 133-251 4-2 8-3 13-3 7 0 13 3 18 9 6 10 4 24-6 31z" horiz-adv-x="1000" />

<glyph glyph-name="081-fresh-juice" unicode="&#xe850;" d="M978 356l-17 17c-66 66-170 71-241 15-3 20-10 40-19 59-5 11-19 16-30 11-11-6-16-19-11-31 29-60 21-131-18-183-3 28-15 53-34 72-17 18-39 29-63 35l39 474c0 7-2 13-6 18-4 4-10 7-17 7h-523c-6 0-12-3-16-7-5-5-7-11-6-18l79-954c1-12 11-21 22-21h404c1 0 2 0 2 0 16 0 32 2 48 5 60 12 105 33 135 62 39 39 65 87 74 134 10 50-1 94-31 124-20 20-46 32-76 34 21 26 35 55 43 87 34-28 75-42 116-42 47 0 93 18 129 53l17 17c4 4 6 10 6 16 0 6-2 12-6 16z m-385-164l-222-223c-36 45-50 103-39 160 9 44 35 96 61 121 32 32 69 53 104 57 5 1 11 2 16 2 25 0 47-9 63-25 21-21 27-54 17-92z m-56 613l-10-119h-36l6 73c1 13-9 24-21 25-13 1-24-9-25-21l-6-77h-372l-10 119h474z m-399-910l-61 746h365l-7-89c-1-13 9-24 21-25 1 0 1 0 2 0 12 0 21 9 22 21l8 93h35l-24-288c-3 0-6 0-9-1-44-6-90-31-129-69-32-33-62-92-73-145-16-79 8-160 66-218 0 0 0 0 0 0 0 0 0 0 0 0 9-9 19-17 29-25h-245z m536 54c-23-22-61-39-112-50-57-11-115 3-159 38l222 223c38 10 72 4 92-17 41-41 21-129-43-194z m255 390c-54-53-140-53-193 0l-1 1 1 1c53 53 139 53 193 0l1-1-1-1z m-369-256l-27-27c-9-9-9-23 0-32 4-5 10-7 16-7s11 2 16 7l27 27c9 9 9 23 0 32s-23 9-32 0z m-75 75l-27-27c-9-9-9-24 0-32 4-5 10-7 16-7 6 0 12 2 16 7l27 27c9 9 9 23 0 32s-23 9-32 0z m-40 227c1 0 1 0 2 0 12 0 21 9 22 21l5 54c1 12-9 23-21 24-13 1-24-8-25-21l-4-54c-1-13 9-23 21-24z" horiz-adv-x="1000" />

<glyph glyph-name="082-scales" unicode="&#xe851;" d="M500 786c-111 0-202-91-202-202 0-112 91-202 202-202s202 90 202 202c0 111-91 202-202 202z m-102-321l8 8c9 9 9 24 0 33-8 8-23 8-32 0l-6-7c-11 19-19 39-23 62h10c12 0 22 10 22 23s-10 22-22 22h-10c4 26 14 51 30 71l6-7c5-4 10-6 16-6 6 0 12 2 16 6 9 9 9 24 0 32l-6 7c20 15 44 26 70 29v-9c0-13 10-23 23-23s23 10 23 23v9c26-3 50-14 70-29l-6-7c-9-8-9-23 0-32 4-4 10-6 16-6s11 2 16 6l7 7c15-20 25-45 29-71h-10c-12 0-22-10-22-22s10-23 22-23h10c-3-23-11-43-23-62l-6 7c-9 8-23 8-32 0-9-9-9-24 0-33l8-8c-27-24-63-38-102-38-39 0-74 14-102 38z m428 252h-95c-48 83-135 133-231 133s-183-50-230-133h-96c-58 0-106-47-106-106v-655c0-59 48-106 106-106h652c58 0 106 47 106 106v655c0 59-48 106-106 106z m60-761c0-33-27-61-60-61h-652c-33 0-60 28-60 61v655c0 34 27 61 60 61h109c9 0 16 5 20 12 38 74 114 121 197 121s159-47 197-121c4-7 12-12 20-12h109c33 0 60-27 60-61v-655z m-386 731c-13 0-23-10-23-23v-80c0-13 10-23 23-23s23 10 23 23v80c0 13-10 23-23 23z" horiz-adv-x="1000" />

<glyph glyph-name="083-waist" unicode="&#xe852;" d="M777 240c0 0 0 0 0 0-37 58-57 124-57 193 0 47 10 94 28 138 35 81 52 167 52 256 0 13-10 23-23 23s-23-10-23-23c0-63-10-125-29-185-146 48-304 48-450 0-19 60-29 122-29 185 0 13-10 23-23 23s-23-10-23-23c0-89 17-175 52-256 18-44 28-91 28-138 0-69-20-135-57-193 0 0 0 0 0 0-42-65-64-140-64-217v-21-129c0-13 10-23 23-23s23 10 23 23v118c34 27 96 26 152-3 30-16 56-39 73-65v-50c0-13 10-23 23-23s24 10 24 23v33c15-1 31-1 47 0v-33c0-13 10-23 23-23s23 10 23 23v50c17 26 43 49 74 65 55 29 117 30 151 3v-118c0-13 10-23 23-23s23 10 23 23v129 21c0 77-22 152-64 217z m-450 193c0 54-11 106-32 156-2 3-3 6-4 9 136 44 282 44 418 0-1-3-2-6-4-9-21-50-31-102-31-156 0-77 22-152 63-217 0 0 0 0 0 0-76-29-155-44-237-44-82 0-161 15-237 44 0 0 0 0 0 0 41 65 64 140 64 217z m295-404c-36-19-67-46-88-76-23-1-45-1-68 0-21 30-52 57-88 76-59 31-124 36-172 16 3 45 14 89 34 130 83-33 170-49 260-49 90 0 177 16 260 49 20-41 31-85 34-130-48 20-113 15-172-16z" horiz-adv-x="1000" />

<glyph glyph-name="084-shower" unicode="&#xe853;" d="M767 850h-160c-99 0-179-80-181-178-58-8-106-47-126-102h-6c-12 0-21-9-21-21v-67c0-12 9-22 21-22h307c12 0 22 10 22 22v67c0 12-10 21-22 21h-5c-20 55-69 94-126 102 1 74 62 134 137 134h160c12 0 22 10 22 22s-10 22-22 22z m-188-346h-263v23h263v-23z m-31 66h-201c20 36 58 60 101 60s80-24 100-60z m-228-156c-12 2-23-6-25-18l-10-66c-2-12 6-23 18-25 1-1 2-1 3-1 11 0 20 8 22 19l10 66c2 12-6 24-18 25z m-24-152c-12 2-23-7-25-18l-11-67c-2-12 6-23 18-25 1 0 2 0 4 0 10 0 19 7 21 18l11 67c2 12-6 23-18 25z m-25-153c-12 2-23-6-25-18l-11-67c-1-12 7-23 18-25 2 0 3 0 4 0 10 0 20 7 21 18l11 67c2 12-6 23-18 25z m-24-153c-12 2-24-6-25-18l-11-63c-1-12 7-23 19-25 1 0 2 0 3 0 11 0 20 8 22 18l10 63c2 12-7 23-18 25z m142 150c-12 0-23-9-23-21l-4-68c-1-12 9-22 21-23 0 0 1 0 1 0 11 0 21 9 22 21l3 68c1 12-8 22-20 23z m8 154c-12 1-22-8-23-20l-4-68c0-12 9-22 21-23 0 0 1 0 1 0 12 0 21 9 22 21l4 67c0 12-9 22-21 23z m-17-309c-12 1-22-9-23-21l-3-57c0-12 9-22 21-23 0 0 1 0 1 0 12 0 21 9 22 21l3 57c1 12-9 22-21 23z m25 464c-12 0-22-9-23-21l-3-67c-1-12 8-23 20-23 1 0 1 0 2 0 11 0 21 9 21 20l4 68c1 12-9 22-21 23z m107-421c0 0 0 0 1 0 12 1 21 11 20 23l-3 68c-1 12-11 21-23 21-12-1-22-11-21-23l4-68c0-12 10-21 22-21z m26-64c-1 12-11 22-23 21-12-1-21-11-21-23l4-57c0-12 10-21 21-21 1 0 1 0 1 0 12 1 22 11 21 23l-3 57z m-43 374c0 0 1 0 1 0 12 0 21 11 21 23l-4 67c-1 12-11 21-23 21-12-1-21-11-20-23l3-68c1-11 10-20 22-20z m8-155c1 0 1 0 1 0 12 1 22 11 21 23l-4 68c0 12-11 21-23 20-12-1-21-11-20-23l3-67c1-12 11-21 22-21z m139-150c12 2 20 13 18 25l-11 67c-2 12-13 20-25 18-12-2-20-13-18-25l11-67c2-11 11-18 21-18 2 0 3 0 4 0z m32-61c-2 12-13 20-25 18-12-2-20-13-18-25l10-63c2-10 11-18 21-18 2 0 3 0 4 0 12 2 20 13 18 25l-10 63z m-81 367c12 2 20 13 18 25l-11 66c-2 12-13 20-25 18-12-1-20-13-18-25l11-66c1-11 11-19 21-19 1 0 3 0 4 1z m24-153c12 2 20 13 18 25l-10 67c-2 11-13 20-25 18-12-2-20-13-18-25l10-67c2-11 11-18 22-18 1 0 2 0 3 0z" horiz-adv-x="1000" />

<glyph glyph-name="085-dumbbell" unicode="&#xe854;" d="M939 740c-81 82-214 82-295 0-40-39-61-92-61-147s21-109 61-148c20-20 44-36 70-46-10-13-19-22-26-27-30-22-57-48-79-77-3 15-7 31-13 46-26 64-80 109-147 125l-24 6c0 2-1 4-1 6-27 118-126 206-246 221-11 2-21-7-23-18-1-11 7-22 18-23 103-13 187-89 210-189 11-46 21-86 32-118 3-9 11-14 20-14 2 0 4 0 6 1 11 4 17 15 14 26-6 18-13 39-19 63l4-1c53-13 96-50 117-101 21-50 17-105-12-150 0-2-1-3-2-4-7-10-4-23 6-29 3-3 7-4 11-4 7 0 14 4 18 10 1 1 2 3 3 5 11 18 20 38 25 58 24 50 61 93 107 127 15 11 30 29 43 49 11-2 23-3 35-3 15 0 28 1 42 4-17-63-32-117-43-163-27-107-98-244-160-277-13-7-25-9-35-6-301 139-362 281-374 337-2 10-12 17-22 16-51 13-95 44-123 88-30 46-41 101-30 154 2 12-5 23-16 25-12 2-23-5-25-16-13-65 0-131 36-186 33-52 84-88 143-104 10-35 32-84 83-140 70-78 175-149 312-212 0 0 1-1 1-1 8-3 17-4 26-4 14 0 28 4 43 12 46 24 86 83 110 127 31 55 57 119 71 177 13 52 30 115 51 189 21 10 41 24 58 41 81 81 81 214 0 295z m-148-314c-44 0-86 17-118 49-31 31-49 73-49 118s18 86 49 118c33 32 76 48 118 48s86-16 119-48c65-65 65-171 0-236-32-32-74-49-119-49z m-38 205c-22-21-22-56 0-77 10-11 24-16 38-16 14 0 28 5 39 16v0c21 21 21 56 0 77-21 22-56 22-77 0z m48-48c-5-5-14-5-19 0-5 5-5 14 0 19 3 2 6 4 9 4 4 0 7-2 10-4 5-5 5-14 0-19z m97 116c-59 59-154 59-213 0-59-59-59-154 0-213 29-29 68-44 106-44s78 15 107 44c59 59 59 154 0 213z m-29-184c-43-42-112-42-155 0-42 43-42 112 0 155 22 21 50 32 77 32s56-11 78-32c42-43 42-112 0-155z" horiz-adv-x="1000" />

<glyph glyph-name="086-arm" unicode="&#xe855;" d="M963 294l-61 122c-5 11-18 15-29 11l-62-27c-7 16-23 26-41 25-21-1-38-15-42-36-2-12-4-26-5-39-3-25-7-53-15-67-10-16-14-35-15-54-36-37-98-50-131-45-16 2-36 7-58 11-17 4-34 7-52 11 42 72 42 164-3 237l-15 24c2 2 3 4 4 6 42 67 57 147 43 225-1 3-2 7-3 11-25 79-98 135-181 139l-38 2c-84 4-161-45-193-121-33-79-28-169 14-242-19-35-40-90-44-174-6-115 20-251 78-406 0-1 0-2 0-2 11-23 31-39 59-48 18-5 37-7 57-7 43 0 90 10 127 21 67 18 137 48 192 82 129 77 302 171 303 172 3 2 6 4 8 7l101 139c5 6 6 15 2 23z m-136-132c-28-15-182-100-301-171-103-62-265-114-340-91-15 5-26 12-31 23-109 294-78 452-45 524 4-6 8-12 13-18 7-10 20-12 31-5 10 7 12 21 5 31-7 10-15 20-23 29-9 11-12 16-14 18-38 63-44 141-15 210 25 59 85 96 149 93l39-1c65-3 121-47 140-108 2-4 2-6 2-6 12-67-1-136-37-193-15-24-28-47-40-67-6-11-2-25 9-31 3-2 7-3 11-3 7 0 15 5 19 12 3 5 6 11 9 16l3-4c39-64 36-146-7-207-25 4-50 6-71 6-13-1-22-11-22-23 0-13 10-22 23-22 46 1 110-12 161-22 23-5 43-9 60-12 6-1 13-1 21-1 35 0 82 10 121 36 3-16 7-29 8-32 3-9 12-15 21-15 3 0 5 0 8 1 11 4 17 17 14 28 0 0-6 19-9 41-4 27-1 49 6 61 15 23 18 55 22 86 1 12 3 24 5 34 17-60 1-134 1-135-3-12 5-24 17-26 12-3 24 5 26 17 1 1 3 10 4 24l43 32c9 7 11 21 4 31-8 10-22 12-31 4l-12-8c0 12-1 25-2 38l50 21 45-91-90-124z" horiz-adv-x="1000" />

<glyph glyph-name="alarm-clock" unicode="&#xe856;" d="M960 767l-45 45c-51 51-132 51-183 0-28-28-41-66-37-103-59 29-125 46-195 46-70 0-136-17-195-46 4 37-9 75-37 103-50 51-132 51-183 0l-45-45c-51-50-51-132 0-183 25-24 56-37 88-38-40-66-63-143-63-226 0-135 62-257 160-337l-50-94c-7-13-2-29 11-36 4-2 9-3 13-3 9 0 19 5 24 14l46 88c67-42 146-67 231-67 84 0 163 24 229 66l46-87c5-9 14-14 24-14 4 0 9 1 13 3 13 7 18 23 11 36l-50 94c99 79 161 201 161 337 0 83-23 160-63 226 32 1 64 13 89 38 51 51 51 133 0 183z m-227-617c-15 9-20 27-11 42 8 15 27 20 41 11 15-8 20-27 11-41-8-15-27-20-41-12z m-179 197h104c15 0 27-12 27-27s-12-27-27-27h-104c-10-20-30-34-54-34-34 0-62 27-62 61 0 24 14 45 34 55v234c0 15 12 27 27 27s27-12 27-27v-234c13-6 23-16 28-28z m63 237c8 14 27 19 41 11 15-9 20-27 11-42-8-14-27-19-41-11-15 8-20 27-11 42z m41-539c-14-8-33-3-41 12-9 14-4 33 11 41 14 9 33 4 41-11 9-15 4-33-11-42z m-158 19c16 0 30-14 30-31 0-16-14-30-30-30-17 0-31 14-31 30 0 17 14 31 31 31z m233 426c14 8 33 3 41-11 9-15 4-33-11-42-14-8-33-3-41 11-9 15-4 34 11 42z m23-170c0 17 14 31 30 31 17 0 31-14 31-31 0-17-14-30-31-30-16 0-30 13-30 30z m-426-233c8 15 27 20 41 11 15-8 20-27 12-41-9-15-27-20-42-12-15 9-20 27-11 42z m11 508c15 8 33 3 42-11 8-15 3-34-12-42-14-8-33-3-41 11-9 15-4 33 11 42z m-116-116c8 14 27 19 42 11 14-8 19-27 11-42-9-14-27-19-42-11-15 9-20 27-11 42z m-12-128c17 0 30-14 30-31 0-17-13-30-30-30-17 0-31 13-31 30 0 17 14 31 31 31z m23-148c15 9 33 4 42-11 8-15 3-33-11-42-15-8-34-3-42 12-9 14-4 33 11 41z" horiz-adv-x="1000" />

<glyph glyph-name="apple" unicode="&#xe857;" d="M890 402c-26 88-87 145-174 164-23 6-45 8-66 8-53 0-94-16-123-35 0 9 0 30-5 60 4 0 10 0 17 0 37 0 107 6 152 52 63 63 53 170 52 174l-2 22-22 2c-1 0-9 1-22 1-37 0-106-7-152-53-28-28-41-65-47-98-14 40-33 86-61 136-8 13-24 17-37 10-13-7-17-24-10-37 81-144 84-253 83-271-29 20-70 35-123 35 0 0 0 0 0 0-21 0-43-2-66-7-87-19-148-76-174-164-25-81-15-173-3-236 13-66 48-141 94-200 26-33 54-60 84-79 36-24 74-36 111-36 37 0 71 11 104 32 33-21 67-32 104-32 38 0 75 12 111 36 30 19 58 46 84 79 46 59 81 134 94 201 13 62 22 154-3 236z m-25-8c-11 37-29 67-53 91 24-24 42-54 53-91z" horiz-adv-x="1000" />

<glyph glyph-name="basketball" unicode="&#xe858;" d="M1000 350c0 276-224 500-500 500s-500-224-500-500 224-500 500-500 500 224 500 500z m-289-27h-185v-418c-7-1-18-1-27-1-9 0-17 0-27 1v418h-183c-5-107-44-206-106-286-13 13-25 27-36 41 51 69 83 154 88 245h-180c-1 9-1 18-1 27s0 18 1 27h180c-5 91-37 176-88 245 11 14 23 28 36 41 62-80 101-178 106-286h183v418c10 1 18 1 27 1 9 0 20 0 27-1v-418h185c5 108 44 206 106 286 13-13 25-27 36-41-51-69-83-154-88-245h180c1-9 1-18 1-27s0-18-1-27h-180c5-91 37-176 88-245-11-14-23-28-36-41-62 80-101 179-106 286z" horiz-adv-x="1000" />

<glyph glyph-name="bike" unicode="&#xe859;" d="M792 436c-28 0-55-5-79-15l-90 155c45 7 81 25 96 68 5 15-2 30-16 35-15 5-30-3-35-17-11-32-50-37-141-37-15 0-27-12-27-27 0-15 12-27 27-27 12 0 25 0 37 1l58-102-119-190c-41 70-101 174-142 245 46 8 81 17 81 47v1c0 31-37 40-85 48-34 5-69 9-80 9h-1c-31 0-57-25-57-57v-1c0-31 26-57 57-57h1c5 0 15 1 27 2 7-12 15-27 25-44l-34-56c-27 12-56 19-87 19-115 0-208-93-208-208s93-208 208-208c106 0 193 77 207 182h87c0 0 0 0 0 0s0 0 0 0h0c10 0 19 4 23 12 1 1 1 1 1 2l126 201 14-23c-50-38-82-98-82-166 0-115 93-208 208-208s208 93 208 208c0 115-93 208-208 208z m-584-362c-85 0-154 69-154 154 0 85 69 154 154 154 21 0 40-4 58-11l-29-46c-9 3-19 4-29 4-56 0-101-45-101-101 0-56 45-101 101-101 47 0 86 31 98 75h54c-13-75-76-128-152-128z m98 182c-4 13-12 29-23 41l29 47c25-23 42-55 48-88h-54z m109 0c-7 54-34 100-74 133l19 32c25-43 56-98 95-165h-40z m377-182c-85 0-155 69-155 154 0 48 22 90 56 118l27-47c-18-18-29-43-29-71 0-56 45-101 101-101 56 0 101 45 101 101s-45 101-101 101c-9 0-17-1-25-3l-27 47c16 6 34 9 52 9 85 0 154-69 154-154s-69-154-154-154z" horiz-adv-x="1000" />

<glyph glyph-name="calendar" unicode="&#xe85a;" d="M917 735h-82v34c0 45-37 81-82 81s-81-36-81-81v-34h-91v34c0 45-36 81-81 81s-81-36-81-81v-34h-91v34c0 45-37 81-81 81s-81-36-81-81v-34h-80c-15 0-29-12-29-27v-196-635c0-15 14-27 29-27h831c15 0 26 12 26 27v635 196c0 15-11 27-26 27z m-670 61c15 0 27-12 27-27v-95c0-15-12-27-27-27s-27 12-27 27v95c0 15 12 27 27 27z m253 0c15 0 27-12 27-27v-95c0-15-12-27-27-27s-27 12-27 27v95c0 15 12 27 27 27z m253 0c15 0 27-12 27-27v-95c0-15-12-27-27-27-14 0-27 12-27 27v95c0 15 13 27 27 27z m-641-524h212v-158h-212v158z m0-209h212v-159h-212v159z m263 0h243v-159h-243v159z m294 0h220v-159h-220v159z m220 51h-220v158h220v-158z m-271 0h-243v158h243v-158z m-243 209v162h243v-162h-243z m-51 162v-162h-212v162h212z m565-162h-220v162h220v-162z" horiz-adv-x="1000" />

<glyph glyph-name="diet" unicode="&#xe85b;" d="M758 335c-11 30-21 59-30 87-51 176 85 384 86 386 6 9 6 19 2 28-5 9-14 14-24 14h-584c-10 0-19-5-23-14-5-9-5-19 1-28 1-2 137-210 86-386-8-28-19-57-30-87-49-136-105-289-11-471 5-8 14-14 24-14h490c10 0 19 6 24 14 94 182 38 335-11 471z m-277-13c0 14 8 26 19 26s19-12 19-26-8-27-19-27-19 12-19 27z m-119-293c-50 14-99 19-127 22-1 27 0 54 5 84h520c5-30 7-60 5-88-28-2-77-6-127-19-72-19-115-46-138-76-32 40-88 64-138 77z m611 512h-110l38 37c10 10 11 27 0 38-10 11-27 11-37 1 0 0-87-84-88-84-10-11-9-28 1-38l87-83c5-5 11-7 18-7 7 0 14 3 19 8 11 11 10 28 0 38l-38 37h110c15 0 27 12 27 26s-12 27-27 27z m-946 0h111l-39 37c-10 10-11 27 0 38 10 11 27 11 38 1 0 0 86-84 87-84 10-11 10-28-1-38l-86-83c-6-5-12-7-19-7-7 0-14 3-19 8-11 11-10 28 0 38l39 37h-111c-15 0-27 12-27 26s12 27 27 27z" horiz-adv-x="1000" />

</font>
</defs>
</svg>
